<?xml version="1.0" encoding="UTF-8" ?>
<svg
  xmlns="http://www.w3.org/2000/svg"
  xmlns:xlink="http://www.w3.org/1999/xlink"
  width="24px"
  height="24px"
  viewBox="0 0 24 24"
  version="1.1"
>
<g id="surface1">
<path
      style=" stroke:none;fill-rule:nonzero;fill:rgb(0%,0%,0%);fill-opacity:1;"
      d="M 10.234375 0.0703125 C 10.070312 0.183594 9.070312 1.410156 8.953125 1.640625 C 8.878906 1.785156 8.835938 1.960938 8.820312 2.207031 C 8.796875 2.644531 8.875 2.90625 9.140625 3.300781 C 9.324219 3.566406 9.355469 3.675781 9.332031 3.960938 C 9.320312 4.128906 9.277344 4.210938 9.0625 4.492188 C 8.867188 4.738281 8.875 4.921875 9.074219 5.09375 C 9.28125 5.28125 9.492188 5.21875 9.753906 4.898438 C 10.023438 4.5625 10.144531 4.242188 10.144531 3.84375 C 10.140625 3.453125 10.058594 3.214844 9.792969 2.832031 C 9.609375 2.5625 9.5625 2.257812 9.671875 2.015625 C 9.707031 1.925781 9.984375 1.5625 10.285156 1.203125 C 10.730469 0.671875 10.828125 0.523438 10.828125 0.40625 C 10.824219 0.0898438 10.480469 -0.101562 10.234375 0.0703125 Z M 10.234375 0.0703125 "
    />
<path
      style=" stroke:none;fill-rule:nonzero;fill:rgb(0%,0%,0%);fill-opacity:1;"
      d="M 12.664062 0.03125 C 12.546875 0.078125 11.421875 1.472656 11.328125 1.683594 C 11.277344 1.800781 11.226562 2.039062 11.210938 2.210938 C 11.183594 2.597656 11.269531 2.882812 11.53125 3.285156 C 11.832031 3.753906 11.828125 4.003906 11.503906 4.429688 C 11.328125 4.65625 11.292969 4.832031 11.386719 5.007812 C 11.464844 5.152344 11.609375 5.21875 11.792969 5.183594 C 12.121094 5.117188 12.5625 4.355469 12.5625 3.84375 C 12.5625 3.578125 12.414062 3.144531 12.21875 2.867188 C 11.949219 2.46875 11.933594 2.152344 12.171875 1.832031 C 12.242188 1.738281 12.507812 1.414062 12.757812 1.109375 C 13.148438 0.640625 13.21875 0.535156 13.21875 0.394531 C 13.21875 0.113281 12.933594 -0.0742188 12.664062 0.03125 Z M 12.664062 0.03125 "
    />
<path
      style=" stroke:none;fill-rule:nonzero;fill:rgb(0%,0%,0%);fill-opacity:1;"
      d="M 15.054688 0.03125 C 14.9375 0.078125 13.855469 1.4375 13.742188 1.679688 C 13.503906 2.199219 13.566406 2.742188 13.921875 3.261719 C 14.230469 3.71875 14.230469 3.992188 13.921875 4.40625 C 13.664062 4.75 13.667969 5 13.925781 5.132812 C 14.140625 5.25 14.25 5.21875 14.476562 4.988281 C 15.042969 4.390625 15.101562 3.578125 14.625 2.878906 C 14.253906 2.335938 14.300781 2.140625 14.984375 1.320312 C 15.257812 0.992188 15.515625 0.6875 15.554688 0.640625 C 15.59375 0.59375 15.625 0.484375 15.625 0.382812 C 15.613281 0.109375 15.324219 -0.0742188 15.054688 0.03125 Z M 15.054688 0.03125 "
    />
<path
      style=" stroke:none;fill-rule:nonzero;fill:rgb(0%,0%,0%);fill-opacity:1;"
      d="M 10.054688 5.90625 C 6.835938 6.113281 4.148438 6.683594 2.4375 7.527344 C 1.472656 8.007812 0.898438 8.492188 0.570312 9.113281 C 0.449219 9.347656 0.445312 9.367188 0.449219 10.195312 C 0.453125 10.917969 0.46875 11.125 0.578125 11.625 C 1 13.640625 2.042969 15.429688 3.488281 16.632812 C 3.722656 16.824219 3.921875 17 3.929688 17.023438 C 3.9375 17.042969 3.488281 17.9375 2.929688 19.007812 C 1.824219 21.136719 1.800781 21.191406 1.9375 21.660156 C 2.085938 22.171875 2.53125 22.5 3.066406 22.5 C 3.398438 22.5 3.746094 22.355469 3.945312 22.144531 C 4.015625 22.070312 4.519531 21.15625 5.0625 20.109375 C 5.609375 19.0625 6.0625 18.207031 6.066406 18.203125 C 6.070312 18.191406 6.328125 18.277344 6.636719 18.378906 C 7.6875 18.734375 9.003906 19.023438 9.960938 19.101562 C 10.144531 19.117188 10.402344 19.140625 10.539062 19.152344 L 10.78125 19.175781 L 10.78125 21 C 10.78125 22.144531 10.800781 22.914062 10.832031 23.0625 C 10.898438 23.363281 11.113281 23.648438 11.414062 23.835938 C 11.617188 23.957031 11.679688 23.976562 11.996094 23.976562 C 12.300781 23.976562 12.382812 23.957031 12.566406 23.851562 C 12.816406 23.703125 13 23.507812 13.117188 23.253906 C 13.179688 23.105469 13.195312 22.847656 13.210938 21.132812 L 13.222656 19.175781 L 13.46875 19.152344 C 13.601562 19.140625 13.859375 19.117188 14.039062 19.101562 C 15.003906 19.015625 16.296875 18.742188 17.320312 18.394531 C 17.65625 18.28125 17.933594 18.207031 17.945312 18.226562 C 18.050781 18.511719 19.917969 21.96875 20.042969 22.121094 C 20.5 22.648438 21.253906 22.671875 21.75 22.171875 C 21.921875 22.003906 22 21.882812 22.058594 21.679688 C 22.203125 21.179688 22.214844 21.207031 20.722656 18.375 L 20.019531 17.039062 L 20.21875 16.875 C 21.992188 15.390625 23.011719 13.691406 23.445312 11.507812 C 23.53125 11.101562 23.550781 10.820312 23.554688 10.171875 L 23.554688 9.351562 L 23.390625 9.046875 C 23.183594 8.667969 22.765625 8.234375 22.320312 7.945312 C 20.769531 6.941406 18.039062 6.238281 14.601562 5.953125 C 13.785156 5.882812 10.875 5.855469 10.054688 5.90625 Z M 13.78125 6.703125 C 17.726562 6.917969 21.023438 7.785156 22.265625 8.9375 C 22.90625 9.535156 22.953125 10.027344 22.421875 10.597656 C 22.125 10.917969 21.757812 11.160156 21.121094 11.464844 C 18.117188 12.898438 12.355469 13.421875 7.390625 12.699219 C 4.644531 12.300781 2.417969 11.5 1.578125 10.597656 C 1.046875 10.027344 1.09375 9.535156 1.734375 8.9375 C 3.390625 7.40625 8.675781 6.425781 13.78125 6.703125 Z M 1.765625 11.785156 C 3.308594 12.773438 5.960938 13.4375 9.585938 13.742188 C 10.476562 13.820312 13.53125 13.8125 14.4375 13.742188 C 18.007812 13.449219 20.695312 12.773438 22.234375 11.785156 C 22.40625 11.671875 22.5625 11.578125 22.574219 11.578125 C 22.644531 11.578125 22.367188 12.535156 22.140625 13.078125 C 21.75 13.992188 21.226562 14.78125 20.488281 15.53125 C 19.3125 16.734375 17.878906 17.5 15.867188 17.976562 C 15.140625 18.148438 14.464844 18.261719 13.898438 18.304688 C 13.691406 18.320312 13.457031 18.34375 13.378906 18.355469 L 13.234375 18.375 L 13.210938 17.851562 C 13.179688 17.265625 13.125 17.078125 12.886719 16.804688 C 12.421875 16.28125 11.578125 16.28125 11.113281 16.804688 C 10.871094 17.082031 10.8125 17.265625 10.789062 17.835938 L 10.773438 18.355469 L 10.339844 18.320312 C 7.6875 18.097656 5.5 17.296875 3.933594 15.960938 C 2.933594 15.109375 2.089844 13.828125 1.644531 12.488281 C 1.457031 11.925781 1.375 11.578125 1.425781 11.578125 C 1.4375 11.578125 1.59375 11.671875 1.765625 11.785156 Z M 12.257812 17.316406 C 12.324219 17.382812 12.378906 17.507812 12.398438 17.628906 C 12.414062 17.742188 12.421875 18.976562 12.414062 20.367188 C 12.398438 22.695312 12.394531 22.914062 12.3125 23.03125 C 12.148438 23.277344 11.804688 23.25 11.65625 22.96875 C 11.582031 22.820312 11.578125 22.609375 11.585938 20.117188 L 11.601562 17.429688 L 11.734375 17.316406 C 11.902344 17.171875 12.113281 17.171875 12.257812 17.316406 Z M 5 17.667969 C 5.175781 17.769531 5.316406 17.867188 5.3125 17.890625 C 5.277344 18.03125 3.398438 21.554688 3.320312 21.625 C 3.191406 21.730469 2.929688 21.726562 2.8125 21.609375 C 2.667969 21.464844 2.648438 21.296875 2.746094 21.09375 C 3.164062 20.257812 4.621094 17.488281 4.648438 17.484375 C 4.664062 17.484375 4.824219 17.570312 5 17.667969 Z M 20.351562 19.390625 C 21.441406 21.472656 21.4375 21.46875 21.125 21.660156 C 20.9375 21.773438 20.855469 21.773438 20.703125 21.65625 C 20.574219 21.546875 18.617188 17.851562 18.683594 17.828125 C 18.707031 17.816406 18.851562 17.738281 19.007812 17.652344 C 19.164062 17.570312 19.308594 17.5 19.332031 17.503906 C 19.355469 17.507812 19.8125 18.359375 20.351562 19.390625 Z M 20.351562 19.390625 "
    />
<path
      style=" stroke:none;fill-rule:nonzero;fill:rgb(0%,0%,0%);fill-opacity:1;"
      d="M 8.5625 9.265625 C 7.429688 10.398438 6.476562 11.382812 6.449219 11.453125 C 6.328125 11.722656 6.515625 12 6.816406 12 C 6.941406 12 7.195312 11.765625 9.089844 9.871094 L 11.21875 7.742188 L 11.1875 7.5625 C 11.152344 7.339844 11.011719 7.21875 10.789062 7.21875 C 10.625 7.21875 10.515625 7.328125 8.5625 9.265625 Z M 8.5625 9.265625 "
    />
<path
      style=" stroke:none;fill-rule:nonzero;fill:rgb(0%,0%,0%);fill-opacity:1;"
      d="M 10.726562 9.5 C 9.214844 11.011719 8.433594 11.828125 8.414062 11.90625 C 8.351562 12.183594 8.605469 12.441406 8.878906 12.390625 C 8.945312 12.375 9.9375 11.414062 11.292969 10.058594 C 13.390625 7.960938 13.59375 7.742188 13.59375 7.601562 C 13.59375 7.386719 13.414062 7.21875 13.1875 7.21875 C 13.015625 7.21875 12.933594 7.296875 10.726562 9.5 Z M 10.726562 9.5 "
    />
<path
      style=" stroke:none;fill-rule:nonzero;fill:rgb(0%,0%,0%);fill-opacity:1;"
      d="M 6.132812 9.320312 C 4.601562 10.84375 4.40625 11.058594 4.40625 11.183594 C 4.40625 11.265625 4.449219 11.386719 4.503906 11.457031 C 4.578125 11.554688 4.640625 11.578125 4.796875 11.578125 C 4.988281 11.578125 5 11.570312 6.6875 9.875 C 8.304688 8.265625 8.390625 8.171875 8.390625 8.007812 C 8.390625 7.875 8.359375 7.808594 8.246094 7.714844 C 7.960938 7.476562 8.007812 7.4375 6.132812 9.320312 Z M 6.132812 9.320312 "
    />
<path
      style=" stroke:none;fill-rule:nonzero;fill:rgb(0%,0%,0%);fill-opacity:1;"
      d="M 15.023438 7.644531 C 14.972656 7.671875 14.015625 8.605469 12.898438 9.722656 C 11.523438 11.09375 10.859375 11.789062 10.824219 11.890625 C 10.734375 12.167969 10.976562 12.4375 11.277344 12.382812 C 11.328125 12.378906 12.328125 11.414062 13.5 10.242188 C 15.59375 8.140625 15.625 8.113281 15.589844 7.960938 C 15.539062 7.671875 15.257812 7.519531 15.023438 7.644531 Z M 15.023438 7.644531 "
    />
<path
      style=" stroke:none;fill-rule:nonzero;fill:rgb(0%,0%,0%);fill-opacity:1;"
      d="M 3.921875 9.132812 C 2.886719 10.167969 2.8125 10.257812 2.8125 10.410156 C 2.8125 10.636719 2.96875 10.78125 3.210938 10.78125 C 3.390625 10.78125 3.4375 10.742188 4.484375 9.6875 C 5.550781 8.625 5.578125 8.597656 5.578125 8.410156 C 5.578125 8.164062 5.433594 8.015625 5.199219 8.015625 C 5.054688 8.015625 4.945312 8.105469 3.921875 9.132812 Z M 3.921875 9.132812 "
    />
<path
      style=" stroke:none;fill-rule:nonzero;fill:rgb(0%,0%,0%);fill-opacity:1;"
      d="M 15.125 9.929688 C 13.328125 11.726562 13.21875 11.84375 13.21875 12.003906 C 13.21875 12.285156 13.492188 12.46875 13.75 12.355469 C 13.832031 12.320312 14.714844 11.46875 15.742188 10.445312 C 17.554688 8.625 17.578125 8.597656 17.578125 8.410156 C 17.578125 8.171875 17.433594 8.015625 17.199219 8.015625 C 17.046875 8.015625 16.902344 8.152344 15.125 9.929688 Z M 15.125 9.929688 "
    />
<path
      style=" stroke:none;fill-rule:nonzero;fill:rgb(0%,0%,0%);fill-opacity:1;"
      d="M 17.71875 9.726562 C 16.09375 11.351562 16.011719 11.441406 16.011719 11.605469 C 16.011719 11.820312 16.195312 12 16.421875 12 C 16.550781 12 16.75 11.820312 18.226562 10.34375 C 19.132812 9.441406 19.914062 8.632812 19.949219 8.5625 C 20.082031 8.320312 19.882812 8.015625 19.597656 8.015625 C 19.4375 8.015625 19.332031 8.113281 17.71875 9.726562 Z M 17.71875 9.726562 "
    />
<path
      style=" stroke:none;fill-rule:nonzero;fill:rgb(0%,0%,0%);fill-opacity:1;"
      d="M 20.648438 9.234375 C 20.597656 9.253906 20.160156 9.671875 19.679688 10.15625 C 18.898438 10.941406 18.796875 11.0625 18.796875 11.199219 C 18.796875 11.410156 18.976562 11.578125 19.203125 11.578125 C 19.367188 11.578125 19.429688 11.527344 20.28125 10.671875 C 21.113281 9.84375 21.1875 9.757812 21.1875 9.609375 C 21.183594 9.300781 20.921875 9.117188 20.648438 9.234375 Z M 20.648438 9.234375 "
    />
</g>
</svg>
