<?xml version="1.0" encoding="UTF-8"?>
<svg xmlns="http://www.w3.org/2000/svg" xmlns:xlink="http://www.w3.org/1999/xlink" width="24px" height="24px" viewBox="0 0 24 24" version="1.1">
<g id="surface1">
<path style=" stroke:none;fill-rule:nonzero;fill:rgb(0%,0%,0%);fill-opacity:1;" d="M 0.328125 2.960938 C 0.265625 2.996094 0.164062 3.097656 0.109375 3.183594 L 0 3.34375 L 0 20.65625 L 0.109375 20.816406 C 0.28125 21.074219 0.355469 21.09375 1.289062 21.09375 C 2.222656 21.09375 2.296875 21.074219 2.46875 20.816406 C 2.578125 20.65625 2.578125 20.648438 2.578125 18.957031 L 2.578125 17.25 L 2.855469 17.25 C 3.097656 17.25 3.144531 17.234375 3.230469 17.128906 C 3.464844 16.828125 3.253906 16.546875 2.789062 16.546875 L 2.578125 16.546875 L 2.578125 14.390625 L 21.421875 14.390625 L 21.421875 16.546875 L 13.007812 16.546875 C 5.710938 16.546875 4.570312 16.554688 4.457031 16.617188 C 4.238281 16.730469 4.195312 16.984375 4.375 17.148438 L 4.480469 17.25 L 21.421875 17.25 L 21.421875 18.957031 C 21.421875 21.214844 21.347656 21.09375 22.710938 21.09375 C 23.644531 21.09375 23.71875 21.074219 23.890625 20.816406 L 24 20.65625 L 23.992188 16.328125 L 23.976562 11.992188 L 23.617188 11.664062 L 23.09375 11.679688 C 22.667969 11.695312 22.53125 11.71875 22.375 11.804688 C 22.265625 11.859375 22.167969 11.90625 22.15625 11.90625 C 22.144531 11.90625 22.125 11.648438 22.117188 11.328125 C 22.097656 10.820312 22.082031 10.730469 21.960938 10.484375 C 21.796875 10.15625 21.507812 9.875 21.148438 9.710938 L 20.882812 9.585938 L 19.191406 9.570312 L 17.492188 9.558594 L 17.367188 9.671875 C 17.210938 9.800781 17.1875 10.035156 17.316406 10.164062 C 17.386719 10.234375 17.574219 10.246094 19.101562 10.265625 L 20.804688 10.289062 L 21.007812 10.429688 C 21.125 10.515625 21.253906 10.660156 21.3125 10.78125 C 21.417969 10.984375 21.421875 11.03125 21.421875 12.335938 L 21.421875 13.6875 L 15.109375 13.679688 L 8.789062 13.664062 L 8.789062 10.945312 L 8.90625 10.742188 C 8.976562 10.617188 9.101562 10.492188 9.234375 10.414062 L 9.445312 10.289062 L 12.789062 10.265625 C 16.03125 10.242188 16.132812 10.238281 16.199219 10.152344 C 16.296875 10.015625 16.285156 9.777344 16.167969 9.675781 C 16.074219 9.589844 15.90625 9.585938 10.851562 9.570312 L 5.628906 9.5625 L 5.746094 9.304688 C 5.949219 8.867188 5.953125 8.203125 5.761719 8.011719 C 5.640625 7.890625 5.386719 7.894531 5.269531 8.019531 C 5.199219 8.09375 5.183594 8.195312 5.179688 8.5 C 5.179688 8.792969 5.15625 8.925781 5.082031 9.070312 C 4.738281 9.730469 3.710938 9.722656 3.378906 9.050781 C 3.265625 8.832031 2.578125 6.25 2.578125 6.050781 C 2.578125 5.570312 3.050781 5.109375 3.546875 5.109375 C 4.023438 5.113281 4.382812 5.414062 4.523438 5.925781 C 4.800781 6.933594 4.824219 6.984375 5.089844 6.984375 C 5.273438 6.984375 5.4375 6.847656 5.4375 6.699219 C 5.4375 6.53125 5.148438 5.511719 5.039062 5.296875 C 4.902344 5.03125 4.519531 4.664062 4.226562 4.53125 C 4.050781 4.449219 3.917969 4.429688 3.5625 4.429688 C 3.179688 4.429688 3.078125 4.449219 2.855469 4.550781 L 2.59375 4.679688 L 2.5625 4.402344 C 2.515625 3.847656 2.140625 3.300781 1.648438 3.0625 C 1.425781 2.949219 1.3125 2.929688 0.914062 2.914062 C 0.59375 2.90625 0.40625 2.921875 0.328125 2.960938 Z M 1.359375 3.710938 C 1.480469 3.777344 1.625 3.90625 1.710938 4.023438 L 1.851562 4.226562 L 1.867188 12.308594 L 1.875 20.390625 L 0.703125 20.390625 L 0.703125 3.609375 L 0.929688 3.609375 C 1.070312 3.609375 1.234375 3.648438 1.359375 3.710938 Z M 2.816406 9.5 C 2.875 9.589844 2.910156 9.664062 2.902344 9.675781 C 2.890625 9.683594 2.8125 9.726562 2.734375 9.769531 L 2.578125 9.847656 L 2.582031 9.414062 C 2.582031 8.980469 2.585938 8.976562 2.652344 9.160156 C 2.6875 9.257812 2.761719 9.414062 2.816406 9.5 Z M 6.46875 10.285156 C 6.46875 10.292969 6.421875 10.402344 6.367188 10.527344 C 6.261719 10.75 6.257812 10.828125 6.234375 12.210938 L 6.210938 13.664062 L 4.398438 13.679688 L 2.578125 13.6875 L 2.578125 12.34375 C 2.578125 11.125 2.585938 10.972656 2.667969 10.800781 C 2.761719 10.59375 3.003906 10.378906 3.21875 10.3125 C 3.347656 10.273438 6.46875 10.246094 6.46875 10.285156 Z M 8.335938 10.296875 C 8.089844 10.777344 8.0625 10.988281 8.0625 12.425781 L 8.0625 13.6875 L 6.9375 13.6875 L 6.9375 12.324219 C 6.9375 10.832031 6.945312 10.785156 7.214844 10.527344 C 7.289062 10.457031 7.429688 10.367188 7.527344 10.335938 C 7.71875 10.265625 8.363281 10.242188 8.335938 10.296875 Z M 23.296875 16.382812 L 23.296875 20.390625 L 22.125 20.390625 L 22.125 16.742188 C 22.125 13.304688 22.128906 13.09375 22.214844 12.914062 C 22.375 12.566406 22.667969 12.375 23.054688 12.375 L 23.296875 12.375 Z M 23.296875 16.382812 "/>
</g>
</svg>
