<?xml version="1.0" encoding="UTF-8"?>
<svg xmlns="http://www.w3.org/2000/svg" xmlns:xlink="http://www.w3.org/1999/xlink" width="24px" height="24px" viewBox="0 0 24 24" version="1.1">
<g id="surface1">
<path style=" stroke:none;fill-rule:nonzero;fill:rgb(0%,0%,0%);fill-opacity:1;" d="M 9 2.84375 C 8.960938 2.859375 8.886719 2.910156 8.832031 2.960938 C 8.78125 3.007812 7.203125 6.230469 5.339844 10.117188 C 2.09375 16.875 1.90625 17.253906 0.976562 18.886719 C 0.335938 19.996094 0 20.640625 0 20.722656 C 0 20.910156 0.214844 21.136719 0.425781 21.167969 C 0.683594 21.210938 0.824219 21.050781 1.363281 20.101562 L 1.851562 19.242188 L 1.875 20.070312 L 1.898438 20.90625 L 2.03125 21.03125 L 2.15625 21.164062 L 12.914062 21.179688 L 23.671875 21.1875 L 23.820312 21.050781 L 23.976562 20.914062 L 23.976562 17.273438 L 20.582031 10.617188 C 18.71875 6.957031 17.066406 3.726562 16.914062 3.441406 C 16.53125 2.734375 16.484375 2.714844 15.792969 2.980469 C 13.875 3.722656 12.371094 3.734375 9.917969 3.023438 C 9.179688 2.808594 9.125 2.796875 9 2.84375 Z M 19.421875 10.398438 C 21.242188 13.976562 22.734375 16.921875 22.734375 16.9375 C 22.734375 16.953125 21.289062 16.96875 19.527344 16.96875 L 16.328125 16.96875 L 13.851562 11.890625 C 12.492188 9.101562 11.371094 6.796875 11.363281 6.769531 C 11.347656 6.734375 11.515625 6.753906 11.832031 6.8125 C 12.25 6.890625 12.347656 6.894531 12.46875 6.84375 C 12.625 6.78125 12.75 6.585938 12.75 6.421875 C 12.75 6.261719 12.625 6.066406 12.484375 6.007812 C 12.414062 5.980469 12.226562 5.933594 12.070312 5.90625 C 11.914062 5.878906 11.5625 5.796875 11.292969 5.738281 L 10.796875 5.621094 L 10.433594 4.867188 C 10.234375 4.453125 10.082031 4.105469 10.097656 4.09375 C 10.109375 4.078125 10.351562 4.125 10.632812 4.191406 C 11.527344 4.40625 12.0625 4.472656 12.9375 4.472656 C 14.03125 4.472656 14.75 4.351562 15.75 3.988281 C 15.890625 3.9375 16.03125 3.894531 16.054688 3.894531 C 16.082031 3.894531 17.59375 6.820312 19.421875 10.398438 Z M 12.769531 11.808594 L 15.5625 17.546875 L 15.5625 20.25 L 13.03125 20.25 L 13.03125 18 C 13.03125 16.445312 13.015625 15.71875 12.980469 15.636719 C 12.953125 15.578125 12.863281 15.492188 12.777344 15.449219 C 12.699219 15.40625 11.992188 15.226562 11.203125 15.042969 C 10.414062 14.863281 9.734375 14.703125 9.695312 14.691406 C 9.613281 14.667969 9.609375 14.40625 9.609375 9.992188 L 9.613281 5.320312 L 9.792969 5.695312 C 9.890625 5.902344 11.230469 8.652344 12.769531 11.808594 Z M 8.664062 14.652344 C 8.652344 14.65625 7.972656 14.792969 7.148438 14.949219 C 6.324219 15.109375 5.582031 15.265625 5.503906 15.308594 C 5.417969 15.351562 5.328125 15.4375 5.300781 15.496094 C 5.265625 15.578125 5.25 16.320312 5.25 17.929688 L 5.25 20.25 L 2.8125 20.25 L 2.8125 17.546875 L 5.734375 11.464844 L 8.648438 5.386719 L 8.664062 10.011719 C 8.667969 12.558594 8.667969 14.644531 8.664062 14.652344 Z M 7.191406 17.371094 L 6.210938 19 L 6.195312 17.554688 C 6.191406 16.757812 6.191406 16.105469 6.195312 16.097656 C 6.226562 16.074219 8.132812 15.71875 8.152344 15.730469 C 8.160156 15.742188 7.730469 16.480469 7.191406 17.371094 Z M 11.171875 16.003906 C 11.652344 16.117188 12.0625 16.214844 12.070312 16.226562 C 12.085938 16.242188 12.089844 16.871094 12.085938 17.625 L 12.070312 19 L 11.113281 17.410156 C 10.589844 16.53125 10.152344 15.804688 10.144531 15.789062 C 10.132812 15.773438 10.164062 15.769531 10.203125 15.777344 C 10.25 15.789062 10.683594 15.890625 11.171875 16.003906 Z M 10.4375 18.109375 L 11.71875 20.226562 L 10.429688 20.242188 C 9.722656 20.246094 8.558594 20.246094 7.851562 20.242188 L 6.5625 20.226562 L 7.84375 18.109375 C 8.539062 16.941406 9.125 15.984375 9.140625 15.984375 C 9.15625 15.984375 9.742188 16.941406 10.4375 18.109375 Z M 23.0625 19.078125 L 23.0625 20.25 L 20.921875 20.242188 L 18.773438 20.226562 L 17.9375 19.148438 C 17.480469 18.554688 17.085938 18.03125 17.058594 17.984375 C 17.015625 17.910156 17.171875 17.90625 20.039062 17.90625 L 23.0625 17.90625 Z M 17.066406 19.550781 C 17.3125 19.871094 17.53125 20.160156 17.550781 20.1875 C 17.578125 20.234375 17.460938 20.25 17.042969 20.25 L 16.5 20.25 L 16.5 19.53125 C 16.503906 18.964844 16.515625 18.835938 16.5625 18.894531 C 16.59375 18.933594 16.820312 19.226562 17.066406 19.550781 Z M 17.066406 19.550781 "/>
<path style=" stroke:none;fill-rule:nonzero;fill:rgb(0%,0%,0%);fill-opacity:1;" d="M 14.039062 6.078125 C 13.765625 6.144531 13.632812 6.453125 13.757812 6.71875 C 13.925781 7.074219 14.390625 7.074219 14.574219 6.71875 C 14.742188 6.390625 14.40625 5.984375 14.039062 6.078125 Z M 14.039062 6.078125 "/>
</g>
</svg>
