<?xml version="1.0" encoding="UTF-8"?>
<svg xmlns="http://www.w3.org/2000/svg" xmlns:xlink="http://www.w3.org/1999/xlink" width="24px" height="24px" viewBox="0 0 24 24" version="1.1">
<g id="surface1">
<path style=" stroke:none;fill-rule:nonzero;fill:rgb(0%,0%,0%);fill-opacity:1;" d="M 1.992188 3.207031 C 1.484375 3.367188 1.078125 3.722656 0.859375 4.195312 L 0.726562 4.476562 L 0.710938 10.460938 L 0.703125 16.453125 L 0.515625 16.453125 C 0.277344 16.453125 0.117188 16.527344 0.0507812 16.671875 C -0.0273438 16.84375 -0.0078125 16.949219 0.109375 17.089844 C 0.191406 17.1875 0.273438 17.222656 0.460938 17.242188 L 0.703125 17.265625 L 0.703125 17.632812 C 0.703125 17.960938 0.71875 18.019531 0.820312 18.117188 C 0.921875 18.226562 0.964844 18.234375 1.398438 18.234375 L 1.855469 18.234375 L 1.941406 18.570312 C 2.136719 19.398438 2.757812 20.171875 3.53125 20.5625 C 3.875 20.738281 4.414062 20.859375 4.851562 20.859375 C 6.242188 20.859375 7.429688 19.929688 7.785156 18.5625 L 7.867188 18.257812 L 11.539062 18.242188 L 15.21875 18.234375 L 15.28125 18.519531 C 15.3125 18.679688 15.425781 18.980469 15.523438 19.1875 C 15.777344 19.710938 16.367188 20.300781 16.875 20.546875 C 18.078125 21.121094 19.421875 20.898438 20.347656 19.96875 C 20.742188 19.570312 21.042969 19.039062 21.15625 18.539062 L 21.21875 18.257812 L 22.132812 18.242188 C 23.039062 18.234375 23.046875 18.230469 23.15625 18.117188 C 23.246094 18.023438 23.269531 17.933594 23.289062 17.628906 L 23.304688 17.257812 L 23.546875 17.234375 C 23.910156 17.203125 24.078125 16.964844 23.949219 16.671875 C 23.882812 16.527344 23.722656 16.453125 23.484375 16.453125 L 23.304688 16.453125 L 23.289062 14.75 C 23.265625 12.839844 23.257812 12.792969 22.914062 12.398438 C 22.570312 12.015625 22.460938 11.976562 20.359375 11.628906 C 19.316406 11.457031 18.449219 11.296875 18.425781 11.269531 C 18.375 11.222656 17.203125 8.5 17.203125 8.433594 C 17.203125 8.410156 17.816406 8.390625 18.671875 8.386719 C 19.664062 8.386719 20.179688 8.367188 20.28125 8.328125 C 20.5625 8.226562 20.832031 7.992188 20.976562 7.730469 L 21.117188 7.476562 L 21.117188 5.765625 C 21.117188 4.09375 21.117188 4.050781 21.015625 3.863281 C 20.867188 3.589844 20.644531 3.378906 20.367188 3.253906 L 20.132812 3.140625 L 11.15625 3.144531 C 4.039062 3.144531 2.140625 3.160156 1.992188 3.207031 Z M 20.136719 4.023438 C 20.335938 4.179688 20.34375 4.25 20.34375 5.765625 C 20.34375 7.332031 20.328125 7.414062 20.101562 7.539062 C 20.019531 7.578125 19.304688 7.59375 17.390625 7.601562 C 14.535156 7.617188 14.621094 7.613281 14.324219 7.902344 C 14.03125 8.199219 14.015625 8.269531 14.015625 9.84375 C 14.015625 11.417969 14.03125 11.5 14.324219 11.773438 C 14.605469 12.039062 14.667969 12.046875 16.421875 12.046875 L 18.027344 12.046875 L 19.996094 12.375 C 21.078125 12.554688 22.023438 12.722656 22.085938 12.746094 C 22.246094 12.804688 22.453125 13.078125 22.453125 13.222656 C 22.453125 13.316406 22.410156 13.351562 22.210938 13.425781 C 21.871094 13.542969 21.546875 13.878906 21.449219 14.207031 C 21.355469 14.511719 21.355469 14.644531 21.441406 14.925781 C 21.570312 15.367188 21.890625 15.683594 22.308594 15.796875 L 22.5 15.847656 L 22.5 16.453125 L 22.222656 16.453125 C 21.789062 16.453125 21.589844 16.679688 21.730469 17.011719 C 21.804688 17.183594 21.953125 17.25 22.269531 17.25 C 22.46875 17.25 22.5 17.265625 22.5 17.34375 C 22.5 17.433594 22.46875 17.4375 21.851562 17.4375 L 21.207031 17.4375 L 21.148438 17.160156 C 21.117188 17.007812 21.003906 16.707031 20.898438 16.492188 C 20.53125 15.75 19.777344 15.140625 18.960938 14.929688 C 18.582031 14.832031 17.867188 14.832031 17.484375 14.929688 C 16.410156 15.210938 15.5625 16.0625 15.296875 17.132812 L 15.21875 17.4375 L 12.890625 17.4375 L 12.890625 9.914062 L 12.777344 9.679688 C 12.640625 9.382812 12.460938 9.203125 12.164062 9.066406 C 11.933594 8.957031 11.90625 8.953125 10.402344 8.953125 C 8.722656 8.953125 8.609375 8.96875 8.289062 9.234375 C 8.195312 9.3125 8.058594 9.496094 7.984375 9.648438 L 7.851562 9.914062 L 7.828125 13.570312 C 7.8125 15.582031 7.785156 17.148438 7.765625 17.054688 C 7.707031 16.765625 7.375 16.152344 7.144531 15.890625 C 6.511719 15.191406 5.78125 14.855469 4.871094 14.855469 C 3.800781 14.851562 2.875 15.355469 2.3125 16.242188 L 2.179688 16.453125 L 1.5 16.453125 L 1.5 5.34375 L 1.917969 5.34375 C 2.292969 5.34375 2.351562 5.328125 2.464844 5.230469 C 2.632812 5.089844 2.648438 4.828125 2.492188 4.671875 C 2.40625 4.585938 2.324219 4.566406 1.992188 4.550781 C 1.773438 4.546875 1.59375 4.519531 1.59375 4.496094 C 1.59375 4.414062 1.894531 4.121094 2.058594 4.03125 C 2.222656 3.941406 2.46875 3.941406 11.132812 3.941406 C 19.503906 3.9375 20.042969 3.941406 20.136719 4.023438 Z M 16.90625 9.804688 L 17.515625 11.226562 L 16.226562 11.242188 C 15.320312 11.25 14.921875 11.234375 14.878906 11.199219 C 14.828125 11.15625 14.8125 10.890625 14.8125 9.847656 C 14.8125 9.136719 14.832031 8.53125 14.851562 8.503906 C 14.910156 8.414062 15.015625 8.398438 15.660156 8.394531 L 16.304688 8.390625 Z M 11.972656 9.871094 L 12.09375 10 L 12.09375 12.65625 L 11.609375 12.65625 C 11.164062 12.65625 11.117188 12.664062 11.03125 12.757812 C 10.890625 12.917969 10.871094 13.015625 10.941406 13.191406 C 11.023438 13.390625 11.199219 13.453125 11.699219 13.453125 L 12.09375 13.453125 L 12.09375 17.4375 L 8.625 17.4375 L 8.625 13.804688 C 8.625 9.941406 8.625 9.929688 8.84375 9.800781 C 8.902344 9.769531 9.441406 9.753906 10.386719 9.75 L 11.84375 9.75 Z M 22.484375 14.980469 C 22.4375 15.027344 22.304688 14.929688 22.242188 14.808594 C 22.128906 14.597656 22.152344 14.445312 22.328125 14.28125 L 22.476562 14.132812 L 22.492188 14.550781 C 22.5 14.78125 22.496094 14.972656 22.484375 14.980469 Z M 5.574219 15.757812 C 6.582031 16.101562 7.214844 17.15625 7.039062 18.203125 C 6.820312 19.496094 5.554688 20.320312 4.289062 19.992188 C 3.460938 19.773438 2.808594 19.050781 2.667969 18.183594 C 2.550781 17.457031 2.835938 16.679688 3.398438 16.179688 C 3.980469 15.671875 4.832031 15.5 5.574219 15.757812 Z M 18.933594 15.757812 C 20.011719 16.125 20.652344 17.300781 20.367188 18.390625 C 20.257812 18.796875 20.085938 19.101562 19.78125 19.40625 C 18.496094 20.691406 16.3125 19.976562 16.03125 18.179688 C 15.890625 17.277344 16.339844 16.363281 17.140625 15.914062 C 17.679688 15.613281 18.34375 15.558594 18.933594 15.757812 Z M 1.875 17.34375 C 1.875 17.421875 1.84375 17.4375 1.6875 17.4375 C 1.53125 17.4375 1.5 17.421875 1.5 17.34375 C 1.5 17.265625 1.53125 17.25 1.6875 17.25 C 1.84375 17.25 1.875 17.265625 1.875 17.34375 Z M 1.875 17.34375 "/>
<path style=" stroke:none;fill-rule:nonzero;fill:rgb(0%,0%,0%);fill-opacity:1;" d="M 3.273438 4.621094 C 3.046875 4.738281 3.019531 5.0625 3.214844 5.234375 C 3.332031 5.34375 3.335938 5.34375 4.949219 5.34375 L 6.566406 5.34375 L 6.679688 5.226562 C 6.800781 5.105469 6.835938 4.890625 6.75 4.734375 C 6.660156 4.566406 6.453125 4.546875 4.902344 4.546875 C 3.664062 4.550781 3.375 4.5625 3.273438 4.621094 Z M 3.273438 4.621094 "/>
<path style=" stroke:none;fill-rule:nonzero;fill:rgb(0%,0%,0%);fill-opacity:1;" d="M 7.660156 4.59375 C 7.398438 4.695312 7.332031 5.019531 7.527344 5.222656 L 7.65625 5.34375 L 19.738281 5.34375 L 19.851562 5.226562 C 20.058594 5.023438 19.988281 4.703125 19.714844 4.59375 C 19.554688 4.539062 7.804688 4.53125 7.660156 4.59375 Z M 7.660156 4.59375 "/>
<path style=" stroke:none;fill-rule:nonzero;fill:rgb(0%,0%,0%);fill-opacity:1;" d="M 3.054688 9.074219 C 2.921875 9.140625 2.757812 9.261719 2.695312 9.347656 C 2.445312 9.675781 2.4375 9.730469 2.4375 11.257812 C 2.4375 12.867188 2.445312 12.910156 2.796875 13.222656 C 3.117188 13.507812 3.195312 13.523438 4.710938 13.523438 C 5.90625 13.523438 6.097656 13.515625 6.289062 13.4375 C 6.554688 13.335938 6.863281 13.015625 6.9375 12.765625 C 6.976562 12.640625 6.984375 12.121094 6.976562 11.152344 L 6.960938 9.71875 L 6.820312 9.488281 C 6.730469 9.347656 6.589844 9.207031 6.449219 9.117188 L 6.21875 8.976562 L 4.761719 8.960938 L 3.304688 8.949219 Z M 4.3125 11.25 L 4.3125 12.75 L 3.894531 12.75 C 3.515625 12.75 3.460938 12.734375 3.34375 12.636719 L 3.210938 12.523438 L 3.195312 11.386719 C 3.179688 10.140625 3.191406 9.980469 3.332031 9.839844 C 3.40625 9.765625 3.488281 9.75 3.867188 9.75 L 4.3125 9.75 Z M 6.09375 9.84375 C 6.183594 9.933594 6.1875 10 6.1875 11.246094 L 6.1875 12.558594 L 6.066406 12.652344 C 5.957031 12.734375 5.875 12.75 5.527344 12.75 L 5.109375 12.75 L 5.109375 9.75 L 5.554688 9.75 C 5.9375 9.75 6.015625 9.765625 6.09375 9.84375 Z M 6.09375 9.84375 "/>
<path style=" stroke:none;fill-rule:nonzero;fill:rgb(0%,0%,0%);fill-opacity:1;" d="M 4.617188 16.265625 C 3.757812 16.382812 3.121094 17.269531 3.277344 18.113281 C 3.417969 18.875 4.007812 19.398438 4.78125 19.445312 C 5.339844 19.476562 5.785156 19.269531 6.140625 18.804688 C 6.429688 18.429688 6.535156 17.882812 6.40625 17.433594 C 6.171875 16.636719 5.4375 16.15625 4.617188 16.265625 Z M 5.25 17.132812 C 5.484375 17.253906 5.671875 17.5625 5.671875 17.839844 C 5.671875 18.605469 4.714844 18.941406 4.226562 18.347656 C 3.671875 17.671875 4.460938 16.734375 5.25 17.132812 Z M 5.25 17.132812 "/>
<path style=" stroke:none;fill-rule:nonzero;fill:rgb(0%,0%,0%);fill-opacity:1;" d="M 17.960938 16.273438 C 17.644531 16.320312 17.320312 16.492188 17.082031 16.730469 C 16.3125 17.507812 16.53125 18.792969 17.515625 19.292969 C 17.757812 19.414062 17.835938 19.429688 18.210938 19.429688 C 18.566406 19.429688 18.675781 19.410156 18.890625 19.308594 C 19.21875 19.152344 19.527344 18.84375 19.683594 18.515625 C 19.921875 18.007812 19.808594 17.140625 19.460938 16.875 C 19.304688 16.75 19.101562 16.757812 18.960938 16.898438 C 18.820312 17.035156 18.8125 17.203125 18.9375 17.480469 C 19.125 17.886719 19 18.328125 18.628906 18.542969 C 18.003906 18.910156 17.25 18.328125 17.4375 17.632812 C 17.515625 17.324219 17.746094 17.132812 18.125 17.042969 C 18.476562 16.964844 18.609375 16.855469 18.609375 16.640625 C 18.609375 16.480469 18.460938 16.285156 18.320312 16.257812 C 18.257812 16.246094 18.097656 16.257812 17.960938 16.273438 Z M 17.960938 16.273438 "/>
</g>
</svg>
