<?xml version="1.0" encoding="UTF-8"?>
<svg xmlns="http://www.w3.org/2000/svg" xmlns:xlink="http://www.w3.org/1999/xlink" width="24px" height="24px" viewBox="0 0 24 24" version="1.1">
<g id="surface1">
<path style=" stroke:none;fill-rule:nonzero;fill:rgb(0%,0%,0%);fill-opacity:1;" d="M 9.753906 0.0742188 C 8.269531 0.472656 7.679688 2.183594 8.601562 3.414062 C 8.714844 3.558594 9.234375 4.105469 9.765625 4.621094 C 10.613281 5.457031 10.761719 5.585938 11.085938 5.746094 C 11.410156 5.90625 11.492188 5.929688 11.886719 5.945312 C 12.449219 5.972656 12.851562 5.855469 13.246094 5.558594 C 13.402344 5.445312 13.96875 4.902344 14.511719 4.355469 C 15.371094 3.488281 15.523438 3.308594 15.660156 3.023438 C 15.816406 2.703125 15.820312 2.675781 15.820312 2.132812 C 15.820312 1.597656 15.8125 1.554688 15.671875 1.25 C 15.492188 0.875 15.097656 0.441406 14.773438 0.265625 C 13.960938 -0.179688 12.976562 -0.0507812 12.289062 0.585938 L 12.027344 0.828125 L 11.734375 0.582031 C 11.390625 0.285156 11.164062 0.164062 10.796875 0.0703125 C 10.460938 -0.0195312 10.085938 -0.015625 9.753906 0.0742188 Z M 10.53125 1.457031 C 10.601562 1.480469 10.875 1.714844 11.132812 1.96875 C 11.617188 2.445312 11.75 2.53125 12.027344 2.53125 C 12.265625 2.53125 12.34375 2.480469 12.894531 1.941406 C 13.285156 1.566406 13.429688 1.453125 13.566406 1.429688 C 14.066406 1.332031 14.4375 1.640625 14.4375 2.152344 C 14.4375 2.347656 14.414062 2.414062 14.253906 2.609375 C 13.960938 2.976562 12.449219 4.445312 12.308594 4.5 C 12.125 4.566406 11.832031 4.554688 11.679688 4.480469 C 11.488281 4.378906 9.664062 2.527344 9.609375 2.375 C 9.535156 2.164062 9.554688 1.960938 9.675781 1.761719 C 9.859375 1.457031 10.203125 1.335938 10.53125 1.457031 Z M 10.53125 1.457031 "/>
<path style=" stroke:none;fill-rule:nonzero;fill:rgb(0%,0%,0%);fill-opacity:1;" d="M 11.125 7.175781 C 10.398438 7.261719 9.628906 7.507812 9.023438 7.851562 C 8.820312 7.96875 8.640625 8.0625 8.617188 8.0625 C 8.59375 8.0625 8.46875 8.011719 8.34375 7.945312 C 7.597656 7.566406 6.59375 7.621094 5.667969 8.089844 C 4.289062 8.785156 2.46875 11.078125 2.015625 12.703125 C 1.707031 13.808594 1.9375 14.78125 2.695312 15.542969 C 3.15625 16.007812 3.703125 16.296875 4.292969 16.386719 L 4.507812 16.421875 L 4.480469 16.636719 C 4.386719 17.3125 4.351562 17.90625 4.375 18.445312 C 4.4375 19.949219 4.867188 21.046875 5.757812 21.992188 C 6.722656 23.019531 8.015625 23.597656 10.007812 23.886719 C 10.8125 24.007812 13.175781 24.007812 14.03125 23.886719 C 17.085938 23.464844 18.886719 22.082031 19.484375 19.710938 C 19.671875 18.945312 19.691406 17.5625 19.519531 16.539062 C 19.492188 16.375 19.496094 16.363281 19.621094 16.335938 C 20.351562 16.175781 20.878906 15.914062 21.296875 15.492188 C 22.3125 14.457031 22.382812 13.132812 21.507812 11.484375 C 20.910156 10.359375 19.84375 9.066406 18.984375 8.429688 C 17.835938 7.574219 16.566406 7.386719 15.566406 7.925781 L 15.3125 8.058594 L 15.183594 7.964844 C 14.914062 7.777344 14.148438 7.445312 13.726562 7.339844 C 12.921875 7.132812 11.976562 7.078125 11.125 7.175781 Z M 13.316406 8.6875 C 14.339844 8.953125 15.109375 9.523438 15.742188 10.492188 C 16.074219 11 16.484375 11.875 16.761719 12.65625 C 16.882812 13.003906 17.164062 13.796875 17.394531 14.414062 C 18.144531 16.472656 18.210938 16.777344 18.210938 18.070312 C 18.210938 19.078125 18.164062 19.382812 17.921875 19.988281 C 17.433594 21.1875 16.28125 22.011719 14.609375 22.359375 C 14.203125 22.445312 13.726562 22.507812 13.023438 22.570312 L 12.703125 22.597656 L 12.703125 19.554688 L 12.976562 19.40625 C 13.382812 19.175781 13.875 18.648438 14.089844 18.210938 C 14.265625 17.859375 14.273438 17.816406 14.273438 17.394531 C 14.273438 16.996094 14.257812 16.914062 14.140625 16.683594 C 13.894531 16.175781 13.410156 15.847656 12.75 15.746094 C 12.230469 15.664062 11.257812 15.710938 10.859375 15.839844 C 9.851562 16.164062 9.4375 17.242188 9.9375 18.234375 C 10.191406 18.730469 10.71875 19.269531 11.15625 19.457031 L 11.296875 19.523438 L 11.296875 22.597656 L 10.984375 22.570312 C 9.144531 22.410156 8.046875 22.074219 7.167969 21.394531 C 6.050781 20.535156 5.585938 19.050781 5.835938 17.148438 C 5.925781 16.457031 6.101562 15.84375 6.582031 14.539062 C 6.792969 13.953125 7.078125 13.15625 7.214844 12.773438 C 7.507812 11.929688 7.96875 10.953125 8.316406 10.433594 C 8.992188 9.417969 9.945312 8.789062 11.109375 8.601562 C 11.71875 8.5 12.75 8.539062 13.316406 8.6875 Z M 17.296875 9.101562 C 17.773438 9.25 18.25 9.582031 18.828125 10.1875 C 19.996094 11.40625 20.796875 12.90625 20.699219 13.703125 C 20.652344 14.101562 20.390625 14.503906 20.023438 14.726562 C 19.847656 14.835938 19.449219 14.953125 19.238281 14.953125 L 19.085938 14.953125 L 18.796875 14.164062 C 18.636719 13.734375 18.398438 13.078125 18.273438 12.703125 C 17.78125 11.269531 17.292969 10.238281 16.757812 9.492188 L 16.453125 9.070312 L 16.609375 9.042969 C 16.78125 9.007812 17.0625 9.03125 17.296875 9.101562 Z M 7.460938 9.121094 C 7.476562 9.136719 7.339844 9.371094 7.152344 9.648438 C 6.605469 10.472656 6.296875 11.15625 5.671875 12.914062 C 5.46875 13.480469 5.21875 14.195312 5.105469 14.5 L 4.898438 15.054688 L 4.671875 15.027344 C 3.910156 14.925781 3.355469 14.40625 3.296875 13.734375 C 3.230469 13.007812 3.847656 11.773438 4.902344 10.550781 C 5.5625 9.78125 6.25 9.273438 6.789062 9.144531 C 6.984375 9.097656 7.425781 9.078125 7.460938 9.121094 Z M 12.789062 17.195312 C 12.90625 17.257812 12.921875 17.429688 12.839844 17.59375 C 12.695312 17.867188 12.3125 18.203125 12.085938 18.257812 C 11.839844 18.320312 11.359375 17.949219 11.171875 17.550781 C 11.070312 17.347656 11.117188 17.253906 11.347656 17.164062 C 11.554688 17.089844 12.632812 17.113281 12.789062 17.195312 Z M 12.789062 17.195312 "/>
<path style=" stroke:none;fill-rule:nonzero;fill:rgb(0%,0%,0%);fill-opacity:1;" d="M 9.746094 12.109375 C 9.46875 12.289062 9.421875 12.449219 9.421875 13.210938 C 9.421875 13.964844 9.46875 14.128906 9.71875 14.304688 C 9.792969 14.363281 9.953125 14.414062 10.074219 14.421875 C 10.367188 14.453125 10.585938 14.328125 10.726562 14.0625 C 10.820312 13.875 10.828125 13.785156 10.828125 13.195312 C 10.828125 12.664062 10.8125 12.507812 10.742188 12.375 C 10.625 12.140625 10.390625 12 10.125 12 C 9.976562 12 9.851562 12.03125 9.746094 12.109375 Z M 9.746094 12.109375 "/>
<path style=" stroke:none;fill-rule:nonzero;fill:rgb(0%,0%,0%);fill-opacity:1;" d="M 13.496094 12.109375 C 13.21875 12.289062 13.171875 12.449219 13.171875 13.21875 C 13.171875 13.835938 13.179688 13.917969 13.28125 14.082031 C 13.550781 14.558594 14.269531 14.539062 14.503906 14.042969 C 14.617188 13.804688 14.609375 12.605469 14.492188 12.375 C 14.375 12.140625 14.140625 12 13.875 12 C 13.726562 12 13.601562 12.03125 13.496094 12.109375 Z M 13.496094 12.109375 "/>
</g>
</svg>
