<?xml version="1.0" encoding="UTF-8"?>
<svg xmlns="http://www.w3.org/2000/svg" xmlns:xlink="http://www.w3.org/1999/xlink" width="24px" height="24px" viewBox="0 0 24 24" version="1.1">
<g id="surface1">
<path style=" stroke:none;fill-rule:nonzero;fill:rgb(0%,0%,0%);fill-opacity:1;" d="M 4.804688 0.578125 C 4.738281 0.71875 4.621094 0.835938 4.398438 0.988281 C 3.824219 1.378906 3.671875 1.53125 3.511719 1.851562 C 3.378906 2.125 3.367188 2.1875 3.382812 2.453125 C 3.425781 2.953125 3.613281 3.207031 4.3125 3.703125 C 4.804688 4.050781 4.90625 4.195312 4.855469 4.46875 C 4.824219 4.640625 4.644531 4.828125 4.289062 5.0625 C 3.765625 5.40625 3.453125 5.792969 3.394531 6.183594 L 3.359375 6.375 L 4.101562 6.375 L 4.175781 6.191406 C 4.234375 6.066406 4.34375 5.949219 4.574219 5.789062 C 5.128906 5.398438 5.320312 5.21875 5.464844 4.960938 C 5.582031 4.742188 5.601562 4.664062 5.601562 4.359375 C 5.597656 3.816406 5.429688 3.570312 4.6875 3.046875 C 4.195312 2.699219 4.09375 2.554688 4.144531 2.28125 C 4.175781 2.109375 4.355469 1.921875 4.710938 1.6875 C 5.234375 1.34375 5.546875 0.957031 5.605469 0.566406 L 5.640625 0.375 L 5.269531 0.375 L 4.898438 0.378906 Z M 4.804688 0.578125 "/>
<path style=" stroke:none;fill-rule:nonzero;fill:rgb(0%,0%,0%);fill-opacity:1;" d="M 2.226562 3.125 C 2.210938 3.203125 2.09375 3.359375 1.96875 3.492188 C 1.625 3.847656 1.523438 4.078125 1.523438 4.5 C 1.527344 4.925781 1.625 5.15625 1.988281 5.523438 C 2.207031 5.75 2.226562 5.785156 2.226562 5.996094 C 2.226562 6.207031 2.207031 6.242188 1.988281 6.476562 C 1.710938 6.769531 1.5625 7.03125 1.519531 7.308594 L 1.484375 7.5 L 1.867188 7.5 C 2.242188 7.5 2.242188 7.5 2.273438 7.367188 C 2.289062 7.292969 2.394531 7.140625 2.511719 7.027344 C 2.851562 6.703125 2.972656 6.421875 2.976562 6 C 2.976562 5.574219 2.875 5.34375 2.515625 4.976562 C 2.292969 4.75 2.273438 4.714844 2.273438 4.503906 C 2.273438 4.292969 2.292969 4.257812 2.511719 4.023438 C 2.789062 3.730469 2.9375 3.46875 2.980469 3.191406 L 3.015625 3 L 2.632812 3 C 2.265625 3 2.257812 3 2.226562 3.125 Z M 2.226562 3.125 "/>
<path style=" stroke:none;fill-rule:nonzero;fill:rgb(0%,0%,0%);fill-opacity:1;" d="M 8.101562 3.796875 C 7.695312 3.867188 7.339844 3.992188 6.914062 4.210938 C 6.566406 4.386719 6.40625 4.507812 6.019531 4.894531 C 5.632812 5.28125 5.511719 5.441406 5.335938 5.789062 C 5.046875 6.347656 4.921875 6.796875 4.890625 7.414062 L 4.859375 7.921875 L 1.316406 7.921875 L 1.222656 8.042969 C 1.058594 8.25 1.097656 8.386719 1.375 8.65625 C 1.503906 8.789062 2.34375 9.542969 3.234375 10.335938 L 4.851562 11.769531 L 4.875 15.179688 L 4.898438 18.585938 L 5.011719 18.914062 C 5.410156 20.101562 6.195312 20.878906 7.359375 21.242188 L 7.710938 21.351562 L 11.226562 21.351562 C 15.167969 21.351562 14.992188 21.367188 15.726562 21 C 16.414062 20.664062 16.984375 20.089844 17.28125 19.425781 L 17.414062 19.140625 L 17.796875 19.082031 C 18.851562 18.933594 19.78125 18.4375 20.546875 17.621094 C 22.671875 15.351562 22.640625 11.527344 20.484375 9.328125 C 19.988281 8.820312 19.625 8.558594 19.058594 8.292969 C 18.652344 8.105469 18.03125 7.921875 17.789062 7.921875 L 17.640625 7.921875 L 17.609375 7.414062 C 17.578125 6.796875 17.453125 6.347656 17.164062 5.789062 C 16.988281 5.441406 16.867188 5.28125 16.480469 4.894531 C 16.09375 4.507812 15.933594 4.386719 15.585938 4.210938 C 15.351562 4.085938 15.003906 3.941406 14.8125 3.886719 C 14.464844 3.777344 14.4375 3.777344 11.390625 3.769531 C 9.703125 3.765625 8.222656 3.777344 8.101562 3.796875 Z M 14.742188 4.65625 C 15.554688 4.941406 16.152344 5.460938 16.519531 6.191406 C 16.636719 6.425781 16.734375 6.648438 16.734375 6.683594 C 16.734375 6.742188 15.917969 6.75 11.25 6.75 C 6.582031 6.75 5.765625 6.742188 5.765625 6.683594 C 5.765625 6.648438 5.859375 6.425781 5.976562 6.195312 C 6.308594 5.535156 6.847656 5.03125 7.542969 4.738281 C 8.085938 4.507812 8.164062 4.503906 11.367188 4.515625 L 14.367188 4.523438 Z M 16.875 12.851562 C 16.875 17.320312 16.859375 18.261719 16.804688 18.53125 C 16.601562 19.496094 15.746094 20.351562 14.78125 20.554688 C 14.523438 20.609375 13.855469 20.625 11.269531 20.625 C 9.179688 20.625 7.984375 20.605469 7.800781 20.574219 C 6.789062 20.390625 5.90625 19.53125 5.691406 18.519531 C 5.640625 18.265625 5.625 17.269531 5.625 12.851562 L 5.625 7.5 L 16.875 7.5 Z M 4.875 9.734375 L 4.875 10.800781 L 4.703125 10.636719 C 4.601562 10.542969 4.125 10.117188 3.632812 9.679688 C 3.144531 9.25 2.691406 8.839844 2.625 8.78125 L 2.507812 8.671875 L 4.875 8.671875 Z M 18.4375 8.84375 C 21.203125 9.835938 22.261719 13.742188 20.507812 16.476562 C 19.902344 17.421875 18.804688 18.183594 17.863281 18.308594 L 17.625 18.34375 L 17.625 17.597656 L 17.902344 17.539062 C 19.070312 17.296875 20.125 16.121094 20.492188 14.644531 C 20.644531 14.035156 20.644531 12.945312 20.488281 12.359375 C 20.203125 11.25 19.65625 10.425781 18.859375 9.890625 C 18.5 9.652344 18.125 9.488281 17.8125 9.441406 L 17.625 9.40625 L 17.625 8.65625 L 17.863281 8.691406 C 17.992188 8.710938 18.253906 8.773438 18.4375 8.84375 Z M 18.210938 10.382812 C 19.007812 10.765625 19.613281 11.679688 19.804688 12.773438 C 19.894531 13.292969 19.894531 13.707031 19.804688 14.226562 C 19.613281 15.320312 19.007812 16.234375 18.210938 16.617188 C 18.03125 16.707031 17.828125 16.789062 17.757812 16.808594 L 17.625 16.835938 L 17.625 10.164062 L 17.757812 10.191406 C 17.828125 10.210938 18.03125 10.292969 18.210938 10.382812 Z M 18.210938 10.382812 "/>
<path style=" stroke:none;fill-rule:nonzero;fill:rgb(0%,0%,0%);fill-opacity:1;" d="M 10.828125 7.945312 C 8.992188 8.554688 8.039062 13.527344 9.023438 17.371094 C 9.390625 18.804688 9.96875 19.773438 10.664062 20.113281 C 10.988281 20.269531 11.507812 20.273438 11.820312 20.117188 C 12.796875 19.636719 13.496094 18.054688 13.789062 15.65625 C 13.871094 15.019531 13.871094 13.105469 13.789062 12.46875 C 13.496094 10.078125 12.792969 8.480469 11.828125 8.011719 C 11.558594 7.882812 11.109375 7.851562 10.828125 7.945312 Z M 11.457031 8.671875 C 11.9375 8.855469 12.4375 9.734375 12.75 10.953125 C 13.011719 11.957031 13.09375 12.6875 13.097656 13.992188 C 13.101562 15.921875 12.839844 17.359375 12.273438 18.515625 C 12.042969 18.980469 11.640625 19.421875 11.398438 19.476562 C 11.140625 19.53125 10.96875 19.457031 10.6875 19.175781 C 10.449219 18.9375 10.03125 18.226562 10.03125 18.054688 C 10.03125 18.015625 10.195312 18 10.640625 18 L 11.25 18 L 11.25 17.25 L 9.753906 17.25 L 9.707031 17.070312 C 9.648438 16.84375 9.535156 16.25 9.492188 15.96875 L 9.464844 15.75 L 11.25 15.75 L 11.25 15 L 10.339844 15 C 9.441406 15 9.429688 15 9.402344 14.890625 C 9.390625 14.835938 9.375 14.5 9.375 14.140625 L 9.375 13.5 L 11.25 13.5 L 11.25 12.75 L 9.441406 12.75 L 9.472656 12.429688 C 9.496094 12.257812 9.546875 11.921875 9.589844 11.679688 L 9.664062 11.25 L 11.25 11.25 L 11.25 10.5 L 10.570312 10.5 C 10.191406 10.5 9.890625 10.480469 9.890625 10.457031 C 9.890625 10.351562 10.269531 9.5 10.421875 9.277344 C 10.777344 8.738281 11.113281 8.539062 11.457031 8.671875 Z M 11.457031 8.671875 "/>
<path style=" stroke:none;fill-rule:nonzero;fill:rgb(0%,0%,0%);fill-opacity:1;" d="M 14.625 17.6875 C 14.394531 17.761719 14 18.164062 13.929688 18.402344 C 13.800781 18.84375 13.894531 19.195312 14.226562 19.523438 C 14.699219 20 15.300781 20 15.773438 19.523438 C 16.234375 19.070312 16.246094 18.484375 15.8125 18 C 15.507812 17.664062 15.070312 17.546875 14.625 17.6875 Z M 15.257812 18.492188 C 15.492188 18.722656 15.328125 19.125 15 19.125 C 14.808594 19.125 14.625 18.941406 14.625 18.75 C 14.625 18.558594 14.808594 18.375 15 18.375 C 15.089844 18.375 15.1875 18.417969 15.257812 18.492188 Z M 15.257812 18.492188 "/>
<path style=" stroke:none;fill-rule:nonzero;fill:rgb(0%,0%,0%);fill-opacity:1;" d="M 6.617188 21.800781 C 6.398438 21.867188 6.109375 22.171875 6.042969 22.414062 C 5.933594 22.832031 6.097656 23.269531 6.453125 23.488281 L 6.632812 23.601562 L 16.242188 23.601562 L 16.421875 23.488281 C 16.519531 23.429688 16.65625 23.292969 16.726562 23.1875 C 16.832031 23.03125 16.851562 22.945312 16.851562 22.6875 C 16.851562 22.429688 16.832031 22.34375 16.726562 22.1875 C 16.65625 22.082031 16.519531 21.945312 16.421875 21.886719 L 16.242188 21.773438 L 11.507812 21.765625 C 8.601562 21.757812 6.710938 21.773438 6.617188 21.800781 Z M 16.097656 22.609375 C 16.132812 22.664062 16.132812 22.710938 16.097656 22.773438 C 16.046875 22.847656 15.769531 22.851562 11.460938 22.867188 C 8.113281 22.871094 6.863281 22.859375 6.816406 22.824219 C 6.734375 22.757812 6.730469 22.632812 6.804688 22.554688 C 6.847656 22.515625 7.921875 22.5 11.453125 22.507812 C 15.769531 22.523438 16.046875 22.527344 16.097656 22.609375 Z M 16.097656 22.609375 "/>
</g>
</svg>
