<?xml version="1.0" encoding="UTF-8"?>
<svg xmlns="http://www.w3.org/2000/svg" xmlns:xlink="http://www.w3.org/1999/xlink" width="24px" height="24px" viewBox="0 0 24 24" version="1.1">
<g id="surface1">
<path style=" stroke:none;fill-rule:nonzero;fill:rgb(0%,0%,0%);fill-opacity:1;" d="M 15.421875 1.871094 C 14.527344 2.109375 13.824219 2.78125 13.515625 3.679688 C 13.386719 4.050781 13.386719 4.0625 13.367188 5.539062 C 13.355469 6.628906 13.335938 7.03125 13.296875 7.03125 C 13.210938 7.03125 12.238281 7.515625 11.953125 7.695312 C 11.5625 7.945312 11.175781 8.132812 10.734375 8.277344 C 10.363281 8.398438 10.285156 8.410156 9.5625 8.410156 C 8.875 8.410156 8.738281 8.394531 8.296875 8.28125 C 7.601562 8.105469 7.058594 8.042969 6.375 8.082031 C 3.460938 8.222656 1.058594 10.308594 0.484375 13.210938 C 0.371094 13.78125 0.371094 14.976562 0.484375 15.511719 C 0.757812 16.796875 1.273438 17.796875 2.125 18.683594 C 3.210938 19.824219 4.53125 20.464844 6.117188 20.625 C 6.863281 20.699219 7.472656 20.644531 8.4375 20.40625 C 8.828125 20.304688 9.046875 20.277344 9.492188 20.277344 C 10.40625 20.273438 11.035156 20.460938 11.890625 20.992188 C 12.78125 21.539062 13.65625 21.890625 14.644531 22.09375 C 15.394531 22.242188 16.847656 22.242188 17.605469 22.085938 C 18.355469 21.9375 18.921875 21.742188 19.664062 21.375 C 21.53125 20.445312 22.984375 18.753906 23.617188 16.78125 C 24.308594 14.605469 24.050781 12.328125 22.894531 10.34375 C 22.425781 9.546875 21.601562 8.632812 20.851562 8.078125 L 20.4375 7.773438 L 20.4375 6.160156 C 20.4375 4.382812 20.453125 4.265625 20.703125 4.167969 C 20.953125 4.074219 21.234375 4.246094 21.234375 4.492188 C 21.234375 5 21.613281 5.507812 22.105469 5.652344 C 22.75 5.835938 23.433594 5.433594 23.574219 4.78125 C 23.628906 4.519531 23.578125 3.984375 23.464844 3.664062 C 23.0625 2.527344 22.027344 1.78125 20.859375 1.78125 C 20.667969 1.78125 20.371094 1.8125 20.207031 1.851562 C 19.621094 1.992188 18.960938 2.433594 18.632812 2.90625 L 18.496094 3.101562 L 18.402344 2.96875 C 18.203125 2.679688 17.726562 2.265625 17.410156 2.101562 C 16.804688 1.78125 16.058594 1.695312 15.421875 1.871094 Z M 16.972656 2.757812 C 17.554688 3.039062 18.007812 3.675781 18.074219 4.304688 C 18.113281 4.636719 18.054688 4.785156 17.875 4.871094 C 17.570312 5.011719 17.359375 4.84375 17.296875 4.410156 C 17.242188 4.007812 17.0625 3.722656 16.742188 3.535156 C 16.425781 3.34375 16.148438 3.300781 15.816406 3.398438 C 15.496094 3.492188 15.210938 3.742188 15.066406 4.054688 L 14.953125 4.289062 L 14.953125 10.175781 L 14.835938 10.289062 C 14.695312 10.433594 14.445312 10.445312 14.292969 10.316406 L 14.179688 10.226562 L 14.179688 4.101562 L 14.289062 3.828125 C 14.5 3.308594 14.957031 2.859375 15.46875 2.675781 C 15.675781 2.601562 15.820312 2.582031 16.195312 2.59375 C 16.613281 2.605469 16.695312 2.621094 16.972656 2.757812 Z M 21.523438 2.6875 C 22.25 2.96875 22.71875 3.570312 22.808594 4.351562 C 22.835938 4.625 22.832031 4.640625 22.695312 4.78125 C 22.515625 4.964844 22.351562 4.964844 22.167969 4.785156 C 22.0625 4.683594 22.03125 4.601562 22.03125 4.46875 C 22.03125 3.847656 21.328125 3.257812 20.695312 3.351562 C 20.382812 3.402344 20.019531 3.636719 19.851562 3.910156 L 19.710938 4.140625 L 19.6875 7.144531 C 19.671875 8.796875 19.644531 10.1875 19.621094 10.234375 C 19.523438 10.433594 19.179688 10.46875 19.007812 10.289062 L 18.890625 10.175781 L 18.890625 7.234375 C 18.890625 5.390625 18.910156 4.210938 18.941406 4.078125 C 19.046875 3.625 19.414062 3.101562 19.8125 2.855469 C 20.28125 2.5625 21.019531 2.488281 21.523438 2.6875 Z M 16.414062 4.269531 C 16.460938 4.320312 16.507812 4.445312 16.523438 4.539062 C 16.570312 4.824219 16.636719 5.03125 16.734375 5.1875 C 16.949219 5.539062 17.492188 5.769531 17.898438 5.675781 L 18.09375 5.632812 L 18.09375 6.46875 L 15.75 6.46875 L 15.75 5.421875 C 15.75 4.332031 15.753906 4.292969 15.960938 4.175781 C 16.085938 4.105469 16.316406 4.152344 16.414062 4.269531 Z M 18.09375 7.664062 L 18.09375 8.0625 L 15.75 8.0625 L 15.75 7.265625 L 18.09375 7.265625 Z M 13.359375 8.296875 L 13.359375 8.71875 L 13.167969 8.8125 C 13.0625 8.867188 12.867188 8.980469 12.734375 9.066406 C 12.125 9.453125 11.382812 9.757812 10.632812 9.917969 C 10.101562 10.035156 8.933594 10.03125 8.4375 9.917969 C 7.308594 9.65625 7.21875 9.648438 6.515625 9.671875 C 5.960938 9.6875 5.761719 9.710938 5.414062 9.816406 C 2.773438 10.597656 1.328125 13.402344 2.25 15.953125 C 2.789062 17.441406 3.976562 18.511719 5.570312 18.945312 C 5.859375 19.027344 6.066406 19.046875 6.65625 19.050781 C 7.328125 19.050781 7.429688 19.039062 8.015625 18.894531 C 8.527344 18.769531 8.769531 18.730469 9.289062 18.710938 C 10.589844 18.664062 11.488281 18.914062 12.75 19.664062 C 13.738281 20.253906 14.527344 20.523438 15.570312 20.625 C 16.457031 20.710938 17.398438 20.585938 18.28125 20.269531 C 20.371094 19.519531 21.953125 17.625 22.332031 15.425781 C 22.429688 14.859375 22.429688 13.832031 22.335938 13.285156 C 22.132812 12.132812 21.5625 10.972656 20.769531 10.117188 L 20.4375 9.757812 L 20.4375 9.285156 C 20.4375 9.019531 20.457031 8.8125 20.480469 8.8125 C 20.5625 8.8125 21.136719 9.328125 21.449219 9.6875 C 22.191406 10.542969 22.726562 11.550781 22.992188 12.609375 C 23.171875 13.316406 23.21875 13.820312 23.1875 14.648438 C 23.148438 15.789062 22.941406 16.574219 22.402344 17.628906 C 21.359375 19.648438 19.367188 21.050781 17.070312 21.378906 C 16.554688 21.449219 15.1875 21.40625 14.71875 21.304688 C 13.90625 21.125 12.964844 20.742188 12.296875 20.3125 C 11.042969 19.507812 9.6875 19.296875 8.171875 19.664062 C 6.46875 20.070312 4.984375 19.832031 3.609375 18.929688 C 3.25 18.695312 2.601562 18.085938 2.320312 17.71875 C 1.835938 17.089844 1.460938 16.265625 1.285156 15.421875 C 1.171875 14.898438 1.171875 13.765625 1.285156 13.273438 C 1.53125 12.164062 1.992188 11.3125 2.761719 10.519531 C 3.214844 10.054688 3.640625 9.746094 4.242188 9.445312 C 5.484375 8.832031 6.710938 8.710938 8.15625 9.050781 C 8.734375 9.191406 8.855469 9.207031 9.539062 9.207031 C 10.363281 9.207031 10.617188 9.164062 11.335938 8.890625 C 11.558594 8.808594 12 8.585938 12.3125 8.398438 C 12.84375 8.085938 13.242188 7.878906 13.328125 7.875 C 13.34375 7.875 13.359375 8.0625 13.359375 8.296875 Z M 18.09375 9.257812 L 18.09375 9.65625 L 15.75 9.65625 L 15.75 8.859375 L 18.09375 8.859375 Z M 13.492188 10.515625 C 13.589844 10.738281 13.8125 10.976562 14.035156 11.09375 C 14.246094 11.210938 14.828125 11.207031 15.066406 11.089844 C 15.285156 10.984375 15.535156 10.734375 15.609375 10.546875 L 15.664062 10.40625 L 18.136719 10.40625 L 18.300781 10.660156 C 18.6875 11.269531 19.5 11.386719 20.042969 10.90625 L 20.265625 10.714844 L 20.410156 10.894531 C 21.296875 11.976562 21.757812 13.507812 21.613281 14.867188 C 21.375 17.085938 19.902344 18.929688 17.835938 19.589844 C 17.195312 19.796875 16.867188 19.847656 16.125 19.847656 C 14.933594 19.847656 14.203125 19.625 12.980469 18.886719 C 11.527344 18.007812 9.789062 17.699219 8.226562 18.042969 C 7.996094 18.09375 7.644531 18.167969 7.453125 18.210938 C 6.960938 18.320312 6.054688 18.285156 5.601562 18.140625 C 4.25 17.710938 3.261719 16.667969 2.902344 15.304688 C 2.78125 14.828125 2.765625 13.996094 2.878906 13.527344 C 3.214844 12.113281 4.214844 11.035156 5.601562 10.59375 C 5.84375 10.515625 6.089844 10.480469 6.542969 10.46875 C 7.109375 10.445312 7.210938 10.453125 7.824219 10.589844 C 8.1875 10.667969 8.714844 10.757812 8.992188 10.785156 C 10.316406 10.914062 11.832031 10.546875 13.03125 9.804688 L 13.335938 9.617188 L 13.367188 9.964844 C 13.386719 10.15625 13.445312 10.402344 13.492188 10.515625 Z M 13.492188 10.515625 "/>
<path style=" stroke:none;fill-rule:nonzero;fill:rgb(0%,0%,0%);fill-opacity:1;" d="M 10.382812 12.0625 C 10.101562 12.15625 9.9375 12.253906 9.695312 12.464844 C 9.453125 12.675781 9.210938 12.796875 9.023438 12.796875 C 8.714844 12.796875 8.558594 13.238281 8.789062 13.453125 C 9.039062 13.6875 9.683594 13.527344 10.148438 13.121094 C 10.460938 12.847656 10.570312 12.796875 10.847656 12.796875 C 11.054688 12.796875 11.371094 12.964844 11.554688 13.171875 C 11.605469 13.226562 11.75 13.328125 11.878906 13.390625 C 12.46875 13.691406 13.179688 13.59375 13.664062 13.144531 C 13.945312 12.886719 14.113281 12.796875 14.328125 12.796875 C 14.601562 12.796875 14.742188 12.859375 15.019531 13.109375 C 15.296875 13.359375 15.558594 13.492188 15.898438 13.542969 C 16.316406 13.609375 16.5 13.492188 16.5 13.152344 C 16.5 12.964844 16.332031 12.796875 16.140625 12.796875 C 15.957031 12.796875 15.703125 12.671875 15.484375 12.464844 C 15.367188 12.359375 15.15625 12.214844 15.007812 12.148438 C 14.785156 12.042969 14.679688 12.023438 14.34375 12.023438 C 14 12.027344 13.90625 12.046875 13.6875 12.160156 C 13.546875 12.230469 13.335938 12.378906 13.214844 12.492188 C 13.027344 12.664062 12.757812 12.796875 12.585938 12.796875 C 12.414062 12.796875 12.164062 12.671875 11.929688 12.464844 C 11.773438 12.332031 11.558594 12.183594 11.441406 12.132812 C 11.171875 12.015625 10.632812 11.980469 10.382812 12.0625 Z M 10.382812 12.0625 "/>
<path style=" stroke:none;fill-rule:nonzero;fill:rgb(0%,0%,0%);fill-opacity:1;" d="M 5.742188 14.410156 C 5.429688 14.488281 5.25 14.585938 4.964844 14.839844 C 4.703125 15.074219 4.566406 15.140625 4.355469 15.140625 C 4.1875 15.140625 3.9375 15.359375 3.9375 15.511719 C 3.9375 16.097656 4.789062 16.054688 5.492188 15.429688 C 5.925781 15.050781 6.296875 15.054688 6.726562 15.445312 C 7.203125 15.875 7.742188 16.023438 8.269531 15.871094 C 8.578125 15.78125 8.828125 15.636719 9 15.445312 C 9.140625 15.289062 9.441406 15.144531 9.625 15.140625 C 9.820312 15.140625 10.070312 15.261719 10.296875 15.472656 C 10.5625 15.710938 10.941406 15.890625 11.269531 15.921875 C 11.507812 15.945312 11.535156 15.941406 11.667969 15.804688 C 11.757812 15.71875 11.8125 15.613281 11.8125 15.539062 C 11.8125 15.367188 11.578125 15.140625 11.394531 15.140625 C 11.179688 15.140625 11.023438 15.066406 10.742188 14.8125 C 10.414062 14.523438 10.070312 14.382812 9.65625 14.375 C 9.234375 14.371094 8.925781 14.488281 8.597656 14.773438 C 8.039062 15.257812 7.6875 15.265625 7.179688 14.804688 C 6.789062 14.441406 6.21875 14.289062 5.742188 14.410156 Z M 5.742188 14.410156 "/>
<path style=" stroke:none;fill-rule:nonzero;fill:rgb(0%,0%,0%);fill-opacity:1;" d="M 14.773438 14.414062 C 14.441406 14.507812 14.292969 14.585938 14.011719 14.839844 C 13.75 15.074219 13.613281 15.140625 13.402344 15.140625 C 13.21875 15.140625 12.984375 15.367188 12.984375 15.539062 C 12.984375 15.613281 13.039062 15.71875 13.128906 15.804688 C 13.265625 15.941406 13.285156 15.945312 13.539062 15.917969 C 13.894531 15.875 14.21875 15.722656 14.539062 15.429688 C 14.992188 15.03125 15.332031 15.046875 15.824219 15.476562 C 15.980469 15.609375 16.191406 15.757812 16.296875 15.804688 C 16.835938 16.046875 17.515625 15.929688 17.96875 15.515625 C 18.492188 15.039062 18.859375 15.023438 19.34375 15.472656 C 19.609375 15.710938 19.988281 15.890625 20.316406 15.921875 C 20.554688 15.945312 20.582031 15.941406 20.714844 15.804688 C 20.804688 15.71875 20.859375 15.613281 20.859375 15.539062 C 20.859375 15.367188 20.625 15.140625 20.441406 15.140625 C 20.226562 15.140625 20.070312 15.066406 19.789062 14.8125 C 19.144531 14.234375 18.273438 14.222656 17.632812 14.785156 C 17.089844 15.257812 16.730469 15.261719 16.226562 14.804688 C 15.824219 14.433594 15.257812 14.28125 14.773438 14.414062 Z M 14.773438 14.414062 "/>
</g>
</svg>
