<?xml version="1.0" encoding="UTF-8"?>
<svg xmlns="http://www.w3.org/2000/svg" xmlns:xlink="http://www.w3.org/1999/xlink" width="24px" height="24px" viewBox="0 0 24 24" version="1.1">
<g id="surface1">
<path style=" stroke:none;fill-rule:nonzero;fill:rgb(0%,0%,0%);fill-opacity:1;" d="M 6.613281 0.308594 C 5.863281 0.511719 5.28125 1.101562 5.085938 1.851562 C 5.023438 2.09375 5.015625 3.21875 5.015625 11.375 C 5.015625 18.070312 5.03125 20.691406 5.066406 20.867188 C 5.1875 21.4375 5.570312 21.980469 6.03125 22.25 L 6.234375 22.367188 L 6.234375 22.972656 C 6.234375 23.816406 6.15625 23.765625 7.421875 23.765625 C 8.652344 23.765625 8.578125 23.8125 8.578125 23.070312 L 8.578125 22.546875 L 15.421875 22.546875 L 15.421875 23.078125 C 15.421875 23.535156 15.4375 23.621094 15.507812 23.6875 C 15.582031 23.757812 15.726562 23.765625 16.585938 23.765625 C 17.84375 23.765625 17.765625 23.816406 17.765625 22.972656 L 17.765625 22.367188 L 17.96875 22.25 C 18.253906 22.082031 18.640625 21.652344 18.773438 21.359375 C 18.835938 21.21875 18.90625 20.984375 18.9375 20.832031 C 18.976562 20.628906 18.984375 18 18.976562 11.226562 L 18.960938 1.898438 L 18.859375 1.640625 C 18.613281 1.050781 18.164062 0.601562 17.585938 0.367188 L 17.320312 0.257812 L 12.09375 0.25 C 7.636719 0.238281 6.828125 0.25 6.613281 0.308594 Z M 17.484375 0.941406 C 17.859375 1.117188 18.070312 1.320312 18.242188 1.679688 L 18.398438 1.992188 L 18.414062 4.367188 L 18.425781 6.75 L 8.625 6.75 L 8.625 5.910156 C 8.625 5.085938 8.625 5.070312 8.492188 4.824219 C 8.304688 4.460938 8.015625 4.289062 7.59375 4.289062 C 7.171875 4.289062 6.882812 4.460938 6.695312 4.824219 C 6.5625 5.070312 6.5625 5.085938 6.5625 5.910156 L 6.5625 6.75 L 5.578125 6.75 L 5.578125 4.460938 C 5.578125 1.9375 5.582031 1.902344 5.875 1.46875 C 6.042969 1.210938 6.378906 0.96875 6.699219 0.871094 C 6.882812 0.8125 7.707031 0.804688 12.070312 0.8125 L 17.226562 0.820312 Z M 7.824219 4.894531 C 8.058594 5.015625 8.0625 5.070312 8.0625 7.03125 C 8.0625 8.992188 8.058594 9.046875 7.824219 9.167969 C 7.578125 9.296875 7.285156 9.207031 7.179688 8.976562 C 7.097656 8.792969 7.105469 5.222656 7.191406 5.066406 C 7.3125 4.847656 7.585938 4.773438 7.824219 4.894531 Z M 6.5625 8.152344 C 6.5625 8.976562 6.5625 8.992188 6.695312 9.238281 C 6.882812 9.601562 7.171875 9.773438 7.59375 9.773438 C 8.015625 9.773438 8.304688 9.601562 8.492188 9.238281 C 8.625 8.992188 8.625 8.976562 8.625 8.152344 L 8.625 7.3125 L 18.421875 7.3125 L 18.414062 14.046875 L 18.398438 20.789062 L 18.277344 21.046875 C 18.210938 21.191406 18.085938 21.382812 18.003906 21.484375 C 17.855469 21.648438 17.40625 21.898438 17.152344 21.957031 C 17.03125 21.984375 17.03125 21.976562 16.996094 21.695312 C 16.9375 21.113281 16.59375 20.628906 16.050781 20.363281 L 15.773438 20.226562 L 8.273438 20.226562 L 7.996094 20.363281 C 7.453125 20.628906 7.109375 21.113281 7.050781 21.699219 L 7.015625 21.988281 L 6.871094 21.960938 C 6.609375 21.910156 6.148438 21.65625 5.996094 21.484375 C 5.914062 21.382812 5.789062 21.191406 5.722656 21.046875 L 5.601562 20.789062 L 5.585938 14.046875 L 5.578125 7.3125 L 6.5625 7.3125 Z M 8.484375 21.375 L 8.484375 21.984375 L 7.59375 21.984375 L 7.59375 21.804688 C 7.59375 21.570312 7.78125 21.1875 7.972656 21.027344 C 8.117188 20.90625 8.363281 20.769531 8.453125 20.765625 C 8.46875 20.765625 8.484375 21.039062 8.484375 21.375 Z M 10.078125 21.375 L 10.078125 21.984375 L 9.046875 21.984375 L 9.046875 20.765625 L 10.078125 20.765625 Z M 11.71875 21.375 L 11.71875 21.984375 L 10.640625 21.984375 L 10.640625 20.765625 L 11.71875 20.765625 Z M 13.359375 21.375 L 13.359375 21.984375 L 12.28125 21.984375 L 12.28125 20.765625 L 13.359375 20.765625 Z M 14.953125 21.375 L 14.953125 21.984375 L 13.921875 21.984375 L 13.921875 20.765625 L 14.953125 20.765625 Z M 15.890625 20.914062 C 16.203125 21.101562 16.398438 21.398438 16.4375 21.742188 L 16.46875 21.984375 L 15.515625 21.984375 L 15.515625 21.375 C 15.515625 20.90625 15.53125 20.765625 15.578125 20.765625 C 15.609375 20.765625 15.75 20.835938 15.890625 20.914062 Z M 8.015625 22.875 L 8.015625 23.203125 L 6.796875 23.203125 L 6.796875 22.546875 L 8.015625 22.546875 Z M 17.203125 22.875 L 17.203125 23.203125 L 15.984375 23.203125 L 15.984375 22.546875 L 17.203125 22.546875 Z M 17.203125 22.875 "/>
<path style=" stroke:none;fill-rule:nonzero;fill:rgb(0%,0%,0%);fill-opacity:1;" d="M 14.019531 4.378906 C 13.960938 4.410156 13.878906 4.492188 13.847656 4.550781 C 13.765625 4.695312 13.757812 5.667969 13.835938 5.835938 C 13.949219 6.085938 14.015625 6.09375 15.75 6.09375 C 17.484375 6.09375 17.550781 6.085938 17.664062 5.835938 C 17.738281 5.675781 17.738281 4.730469 17.664062 4.570312 C 17.550781 4.320312 17.484375 4.3125 15.742188 4.3125 C 14.5 4.316406 14.109375 4.332031 14.019531 4.378906 Z M 17.109375 5.203125 L 17.109375 5.53125 L 14.34375 5.53125 L 14.34375 4.875 L 17.109375 4.875 Z M 17.109375 5.203125 "/>
<path style=" stroke:none;fill-rule:nonzero;fill:rgb(0%,0%,0%);fill-opacity:1;" d="M 6.167969 10.085938 C 6.0625 10.242188 6.070312 10.570312 6.1875 10.6875 C 6.394531 10.894531 6.65625 10.730469 6.65625 10.390625 C 6.65625 10.132812 6.554688 9.984375 6.375 9.984375 C 6.289062 9.984375 6.214844 10.023438 6.167969 10.085938 Z M 6.167969 10.085938 "/>
<path style=" stroke:none;fill-rule:nonzero;fill:rgb(0%,0%,0%);fill-opacity:1;" d="M 6.1875 11.25 C 6.097656 11.339844 6.09375 11.40625 6.09375 13.21875 C 6.09375 15.03125 6.097656 15.097656 6.1875 15.1875 C 6.238281 15.238281 6.324219 15.28125 6.375 15.28125 C 6.425781 15.28125 6.511719 15.238281 6.5625 15.1875 C 6.652344 15.097656 6.65625 15.03125 6.65625 13.21875 C 6.65625 11.40625 6.652344 11.339844 6.5625 11.25 C 6.511719 11.199219 6.425781 11.15625 6.375 11.15625 C 6.324219 11.15625 6.238281 11.199219 6.1875 11.25 Z M 6.1875 11.25 "/>
</g>
</svg>
