<?xml version="1.0" encoding="UTF-8"?>
<svg xmlns="http://www.w3.org/2000/svg" xmlns:xlink="http://www.w3.org/1999/xlink" width="24px" height="24px" viewBox="0 0 24 24" version="1.1">
<g id="surface1">
<path style=" stroke:none;fill-rule:nonzero;fill:rgb(0%,0%,0%);fill-opacity:1;" d="M 2.578125 0.0859375 C 2.488281 0.125 2.375 0.238281 2.320312 0.328125 C 2.226562 0.492188 2.226562 0.53125 2.210938 11.222656 L 2.203125 21.945312 L 2.085938 22.082031 C 1.9375 22.265625 1.914062 22.429688 1.929688 23.078125 C 1.945312 23.664062 2 23.8125 2.253906 23.9375 C 2.417969 24.023438 21.582031 24.023438 21.746094 23.9375 C 22 23.8125 22.054688 23.664062 22.070312 23.078125 C 22.085938 22.429688 22.0625 22.265625 21.914062 22.082031 L 21.796875 21.945312 L 21.789062 11.222656 C 21.773438 0.53125 21.773438 0.492188 21.679688 0.328125 C 21.625 0.238281 21.511719 0.125 21.421875 0.0859375 C 21.265625 0.00390625 20.71875 0 12 0 C 3.28125 0 2.734375 0.00390625 2.578125 0.0859375 Z M 4.03125 9.820312 C 4.03125 18.875 4.03125 18.9375 4.125 19.03125 C 4.265625 19.171875 4.515625 19.15625 4.636719 19.003906 L 4.734375 18.875 L 4.734375 2.015625 L 8.578125 2.015625 L 8.578125 3.046875 L 7.96875 3.046875 C 7.234375 3.046875 6.945312 3.101562 6.695312 3.300781 C 6.425781 3.496094 6.28125 3.796875 6.253906 4.199219 C 6.214844 4.636719 6.296875 4.871094 6.515625 4.976562 C 6.660156 5.054688 6.859375 5.0625 8.40625 5.0625 L 10.128906 5.0625 L 10.242188 4.945312 C 10.386719 4.804688 10.390625 4.613281 10.257812 4.46875 L 10.15625 4.359375 L 8.570312 4.359375 C 6.8125 4.359375 6.882812 4.375 6.984375 4.050781 C 7.085938 3.746094 7.078125 3.746094 9.636719 3.757812 L 11.914062 3.773438 L 12.027344 3.90625 C 12.097656 3.988281 12.140625 4.097656 12.140625 4.199219 L 12.140625 4.359375 L 11.835938 4.359375 C 11.570312 4.359375 11.511719 4.375 11.414062 4.476562 C 11.28125 4.601562 11.273438 4.671875 11.347656 4.847656 C 11.433594 5.023438 11.609375 5.070312 12.117188 5.054688 C 12.5625 5.039062 12.570312 5.035156 12.707031 4.882812 C 12.835938 4.742188 12.84375 4.707031 12.84375 4.367188 C 12.84375 3.898438 12.78125 3.695312 12.578125 3.464844 C 12.265625 3.121094 12.125 3.078125 11.265625 3.054688 L 10.5 3.039062 L 10.5 2.015625 L 14.390625 2.015625 L 14.390625 20.578125 L 4.734375 20.578125 L 4.734375 20.464844 C 4.734375 20.335938 4.5625 20.117188 4.453125 20.105469 C 4.296875 20.089844 4.214844 20.113281 4.125 20.203125 C 4.039062 20.289062 4.03125 20.359375 4.03125 21.09375 L 4.03125 21.890625 L 2.90625 21.890625 L 2.90625 0.703125 L 4.03125 0.703125 Z M 19.734375 1.007812 L 19.734375 1.3125 L 4.734375 1.3125 L 4.734375 0.703125 L 19.734375 0.703125 Z M 21.09375 11.296875 L 21.09375 21.890625 L 20.4375 21.890625 L 20.4375 4.589844 L 20.320312 4.476562 C 20.179688 4.332031 19.988281 4.328125 19.84375 4.460938 L 19.734375 4.5625 L 19.734375 20.578125 L 15.09375 20.578125 L 15.09375 2.015625 L 19.734375 2.015625 L 19.734375 2.601562 C 19.734375 3.164062 19.738281 3.195312 19.851562 3.304688 C 19.976562 3.4375 20.046875 3.445312 20.21875 3.371094 C 20.417969 3.277344 20.4375 3.160156 20.4375 1.898438 L 20.4375 0.703125 L 21.09375 0.703125 Z M 9.796875 2.53125 L 9.796875 3.046875 L 9.28125 3.046875 L 9.28125 2.015625 L 9.796875 2.015625 Z M 19.734375 21.585938 L 19.734375 21.890625 L 4.734375 21.890625 L 4.734375 21.28125 L 19.734375 21.28125 Z M 21.375 22.945312 L 21.375 23.296875 L 2.625 23.296875 L 2.625 22.59375 L 21.375 22.59375 Z M 21.375 22.945312 "/>
<path style=" stroke:none;fill-rule:nonzero;fill:rgb(0%,0%,0%);fill-opacity:1;" d="M 8.128906 5.648438 C 8.011719 5.765625 8.007812 5.789062 8.023438 6.261719 C 8.039062 6.71875 8.046875 6.765625 8.152344 6.847656 C 8.292969 6.964844 8.441406 6.960938 8.597656 6.839844 C 8.714844 6.746094 8.71875 6.726562 8.71875 6.238281 C 8.71875 5.773438 8.710938 5.726562 8.609375 5.632812 C 8.464844 5.5 8.273438 5.503906 8.128906 5.648438 Z M 8.128906 5.648438 "/>
<path style=" stroke:none;fill-rule:nonzero;fill:rgb(0%,0%,0%);fill-opacity:1;" d="M 10.472656 5.648438 C 10.355469 5.765625 10.351562 5.789062 10.367188 6.261719 C 10.382812 6.71875 10.390625 6.765625 10.496094 6.847656 C 10.636719 6.964844 10.785156 6.960938 10.941406 6.839844 C 11.058594 6.746094 11.0625 6.726562 11.0625 6.238281 C 11.0625 5.773438 11.054688 5.726562 10.953125 5.632812 C 10.808594 5.5 10.617188 5.503906 10.472656 5.648438 Z M 10.472656 5.648438 "/>
<path style=" stroke:none;fill-rule:nonzero;fill:rgb(0%,0%,0%);fill-opacity:1;" d="M 6.941406 6.496094 C 6.859375 6.601562 6.84375 6.6875 6.84375 7.035156 C 6.84375 7.496094 6.894531 7.648438 7.0625 7.730469 C 7.222656 7.804688 7.285156 7.796875 7.425781 7.683594 C 7.542969 7.589844 7.546875 7.570312 7.546875 7.074219 C 7.546875 6.625 7.539062 6.554688 7.453125 6.46875 C 7.3125 6.328125 7.0625 6.34375 6.941406 6.496094 Z M 6.941406 6.496094 "/>
<path style=" stroke:none;fill-rule:nonzero;fill:rgb(0%,0%,0%);fill-opacity:1;" d="M 9.285156 6.496094 C 9.203125 6.601562 9.1875 6.6875 9.1875 7.035156 C 9.1875 7.496094 9.238281 7.648438 9.40625 7.730469 C 9.566406 7.804688 9.628906 7.796875 9.769531 7.683594 C 9.886719 7.589844 9.890625 7.570312 9.890625 7.074219 C 9.890625 6.625 9.882812 6.554688 9.796875 6.46875 C 9.65625 6.328125 9.40625 6.34375 9.285156 6.496094 Z M 9.285156 6.496094 "/>
<path style=" stroke:none;fill-rule:nonzero;fill:rgb(0%,0%,0%);fill-opacity:1;" d="M 11.628906 6.496094 C 11.546875 6.601562 11.53125 6.6875 11.53125 7.035156 C 11.53125 7.496094 11.582031 7.648438 11.75 7.730469 C 11.910156 7.804688 11.972656 7.796875 12.113281 7.683594 C 12.230469 7.589844 12.234375 7.570312 12.234375 7.074219 C 12.234375 6.625 12.226562 6.554688 12.140625 6.46875 C 12 6.328125 11.75 6.34375 11.628906 6.496094 Z M 11.628906 6.496094 "/>
<path style=" stroke:none;fill-rule:nonzero;fill:rgb(0%,0%,0%);fill-opacity:1;" d="M 8.152344 7.496094 C 8.046875 7.578125 8.039062 7.625 8.023438 8.082031 C 8.007812 8.554688 8.011719 8.578125 8.128906 8.695312 C 8.277344 8.84375 8.480469 8.851562 8.617188 8.703125 C 8.710938 8.605469 8.71875 8.546875 8.71875 8.101562 C 8.71875 7.617188 8.714844 7.597656 8.597656 7.503906 C 8.441406 7.382812 8.292969 7.378906 8.152344 7.496094 Z M 8.152344 7.496094 "/>
<path style=" stroke:none;fill-rule:nonzero;fill:rgb(0%,0%,0%);fill-opacity:1;" d="M 10.496094 7.496094 C 10.390625 7.578125 10.382812 7.625 10.367188 8.082031 C 10.351562 8.554688 10.355469 8.578125 10.472656 8.695312 C 10.621094 8.84375 10.824219 8.851562 10.960938 8.703125 C 11.054688 8.605469 11.0625 8.546875 11.0625 8.101562 C 11.0625 7.617188 11.058594 7.597656 10.941406 7.503906 C 10.785156 7.382812 10.636719 7.378906 10.496094 7.496094 Z M 10.496094 7.496094 "/>
<path style=" stroke:none;fill-rule:nonzero;fill:rgb(0%,0%,0%);fill-opacity:1;" d="M 6.957031 8.367188 C 6.839844 8.484375 6.835938 8.507812 6.851562 8.980469 C 6.867188 9.4375 6.875 9.484375 6.980469 9.566406 C 7.121094 9.683594 7.269531 9.679688 7.425781 9.558594 C 7.542969 9.464844 7.546875 9.445312 7.546875 8.957031 C 7.546875 8.492188 7.539062 8.445312 7.4375 8.351562 C 7.292969 8.21875 7.101562 8.222656 6.957031 8.367188 Z M 6.957031 8.367188 "/>
<path style=" stroke:none;fill-rule:nonzero;fill:rgb(0%,0%,0%);fill-opacity:1;" d="M 9.300781 8.367188 C 9.183594 8.484375 9.179688 8.507812 9.195312 8.980469 C 9.210938 9.4375 9.21875 9.484375 9.324219 9.566406 C 9.464844 9.683594 9.613281 9.679688 9.769531 9.558594 C 9.886719 9.464844 9.890625 9.445312 9.890625 8.957031 C 9.890625 8.492188 9.882812 8.445312 9.78125 8.351562 C 9.636719 8.21875 9.445312 8.222656 9.300781 8.367188 Z M 9.300781 8.367188 "/>
<path style=" stroke:none;fill-rule:nonzero;fill:rgb(0%,0%,0%);fill-opacity:1;" d="M 11.644531 8.367188 C 11.527344 8.484375 11.523438 8.507812 11.539062 8.980469 C 11.554688 9.4375 11.5625 9.484375 11.667969 9.566406 C 11.808594 9.683594 11.957031 9.679688 12.113281 9.558594 C 12.230469 9.464844 12.234375 9.445312 12.234375 8.957031 C 12.234375 8.492188 12.226562 8.445312 12.125 8.351562 C 11.980469 8.21875 11.789062 8.222656 11.644531 8.367188 Z M 11.644531 8.367188 "/>
<path style=" stroke:none;fill-rule:nonzero;fill:rgb(0%,0%,0%);fill-opacity:1;" d="M 8.222656 9.335938 C 8.066406 9.414062 8.015625 9.578125 8.015625 10.027344 C 8.015625 10.527344 8.101562 10.6875 8.371094 10.6875 C 8.664062 10.6875 8.71875 10.574219 8.71875 10.007812 C 8.71875 9.542969 8.710938 9.507812 8.601562 9.398438 C 8.480469 9.273438 8.382812 9.257812 8.222656 9.335938 Z M 8.222656 9.335938 "/>
<path style=" stroke:none;fill-rule:nonzero;fill:rgb(0%,0%,0%);fill-opacity:1;" d="M 10.566406 9.335938 C 10.410156 9.414062 10.359375 9.578125 10.359375 10.027344 C 10.359375 10.527344 10.445312 10.6875 10.714844 10.6875 C 11.007812 10.6875 11.0625 10.574219 11.0625 10.007812 C 11.0625 9.542969 11.054688 9.507812 10.945312 9.398438 C 10.824219 9.273438 10.726562 9.257812 10.566406 9.335938 Z M 10.566406 9.335938 "/>
<path style=" stroke:none;fill-rule:nonzero;fill:rgb(0%,0%,0%);fill-opacity:1;" d="M 6.980469 10.214844 C 6.875 10.296875 6.867188 10.34375 6.851562 10.800781 C 6.835938 11.273438 6.839844 11.296875 6.957031 11.414062 C 7.101562 11.558594 7.320312 11.570312 7.453125 11.4375 C 7.539062 11.351562 7.546875 11.28125 7.546875 10.832031 C 7.546875 10.335938 7.542969 10.316406 7.425781 10.222656 C 7.269531 10.101562 7.121094 10.097656 6.980469 10.214844 Z M 6.980469 10.214844 "/>
<path style=" stroke:none;fill-rule:nonzero;fill:rgb(0%,0%,0%);fill-opacity:1;" d="M 9.324219 10.214844 C 9.21875 10.296875 9.210938 10.34375 9.195312 10.800781 C 9.179688 11.273438 9.183594 11.296875 9.300781 11.414062 C 9.445312 11.558594 9.664062 11.570312 9.796875 11.4375 C 9.882812 11.351562 9.890625 11.28125 9.890625 10.832031 C 9.890625 10.335938 9.886719 10.316406 9.769531 10.222656 C 9.613281 10.101562 9.464844 10.097656 9.324219 10.214844 Z M 9.324219 10.214844 "/>
<path style=" stroke:none;fill-rule:nonzero;fill:rgb(0%,0%,0%);fill-opacity:1;" d="M 11.667969 10.214844 C 11.5625 10.296875 11.554688 10.34375 11.539062 10.800781 C 11.523438 11.273438 11.527344 11.296875 11.644531 11.414062 C 11.789062 11.558594 12.007812 11.570312 12.140625 11.4375 C 12.226562 11.351562 12.234375 11.28125 12.234375 10.832031 C 12.234375 10.335938 12.230469 10.316406 12.113281 10.222656 C 11.957031 10.101562 11.808594 10.097656 11.667969 10.214844 Z M 11.667969 10.214844 "/>
<path style=" stroke:none;fill-rule:nonzero;fill:rgb(0%,0%,0%);fill-opacity:1;" d="M 13.199219 10.316406 L 13.078125 10.410156 L 13.078125 12.285156 C 13.078125 14.09375 13.082031 14.160156 13.171875 14.25 C 13.289062 14.367188 13.503906 14.371094 13.644531 14.253906 L 13.757812 14.164062 L 13.773438 12.4375 C 13.78125 11.488281 13.773438 10.640625 13.757812 10.554688 C 13.726562 10.378906 13.570312 10.21875 13.425781 10.21875 C 13.367188 10.21875 13.269531 10.261719 13.199219 10.316406 Z M 13.199219 10.316406 "/>
<path style=" stroke:none;fill-rule:nonzero;fill:rgb(0%,0%,0%);fill-opacity:1;" d="M 15.824219 10.316406 L 15.703125 10.410156 L 15.703125 12.285156 C 15.703125 14.09375 15.707031 14.160156 15.796875 14.25 C 15.9375 14.390625 16.1875 14.375 16.308594 14.222656 C 16.402344 14.101562 16.40625 14.046875 16.40625 12.320312 C 16.40625 10.851562 16.390625 10.519531 16.335938 10.410156 C 16.226562 10.195312 16.027344 10.15625 15.824219 10.316406 Z M 15.824219 10.316406 "/>
</g>
</svg>
