<?xml version="1.0" encoding="UTF-8"?>
<svg xmlns="http://www.w3.org/2000/svg" xmlns:xlink="http://www.w3.org/1999/xlink" width="24px" height="24px" viewBox="0 0 24 24" version="1.1">
<g id="surface1">
<path style=" stroke:none;fill-rule:nonzero;fill:rgb(0%,0%,0%);fill-opacity:1;" d="M 18.070312 1.015625 C 17.914062 1.027344 17.492188 1.0625 17.132812 1.105469 C 13.273438 1.527344 10.710938 3.214844 10.167969 5.6875 C 10.03125 6.296875 10.058594 7.226562 10.238281 7.921875 C 10.5 8.980469 10.332031 9.695312 9.640625 10.4375 C 8.4375 11.726562 5.71875 12.578125 1.96875 12.84375 C 1.59375 12.867188 1.085938 12.890625 0.839844 12.890625 C 0.449219 12.890625 0.367188 12.90625 0.230469 13 C 0.0078125 13.148438 -0.0546875 13.398438 0.0703125 13.636719 C 0.210938 13.890625 0.34375 13.914062 1.382812 13.871094 C 4.460938 13.753906 7.476562 13.050781 9.171875 12.054688 C 9.640625 11.78125 10.222656 11.339844 10.457031 11.070312 C 11.292969 10.132812 11.488281 9.289062 11.230469 7.757812 C 11.023438 6.511719 11.023438 6.085938 11.25 5.445312 C 11.746094 4.039062 13.421875 2.882812 15.703125 2.371094 C 17.703125 1.925781 20.257812 1.898438 22.835938 2.296875 C 23.628906 2.421875 23.652344 2.417969 23.839844 2.230469 C 24.019531 2.054688 24.046875 1.871094 23.929688 1.640625 C 23.835938 1.457031 23.761719 1.425781 23.269531 1.339844 C 21.664062 1.0625 19.601562 0.9375 18.070312 1.015625 Z M 18.070312 1.015625 "/>
<path style=" stroke:none;fill-rule:nonzero;fill:rgb(0%,0%,0%);fill-opacity:1;" d="M 20.859375 3.890625 C 19.285156 4.011719 18.101562 4.351562 17.410156 4.875 C 16.789062 5.339844 16.550781 6.121094 16.761719 6.980469 C 16.871094 7.421875 17.113281 7.921875 17.703125 8.90625 C 18.523438 10.285156 18.773438 10.851562 18.917969 11.691406 C 19.210938 13.355469 18.367188 15.167969 16.386719 17.132812 C 13.828125 19.667969 10.273438 21.234375 5.8125 21.792969 C 4.519531 21.957031 3.511719 22 2.0625 21.960938 C 1.328125 21.941406 0.625 21.921875 0.5 21.917969 C 0.300781 21.914062 0.257812 21.933594 0.136719 22.070312 C -0.0898438 22.320312 -0.0078125 22.726562 0.300781 22.851562 C 0.582031 22.96875 2.421875 23.035156 3.769531 22.972656 C 6.320312 22.859375 8.433594 22.492188 10.503906 21.796875 C 13.203125 20.890625 15.289062 19.632812 17.109375 17.8125 C 18.730469 16.191406 19.621094 14.734375 19.902344 13.226562 C 20.011719 12.660156 19.972656 11.609375 19.832031 11.070312 C 19.625 10.273438 19.367188 9.734375 18.546875 8.347656 C 17.789062 7.058594 17.597656 6.542969 17.714844 6.109375 C 17.820312 5.71875 18.140625 5.46875 18.820312 5.253906 C 19.734375 4.960938 21.378906 4.796875 22.761719 4.851562 C 23.5625 4.882812 23.664062 4.871094 23.820312 4.667969 C 23.984375 4.46875 23.898438 4.078125 23.65625 3.953125 C 23.488281 3.867188 21.699219 3.824219 20.859375 3.890625 Z M 20.859375 3.890625 "/>
<path style=" stroke:none;fill-rule:nonzero;fill:rgb(0%,0%,0%);fill-opacity:1;" d="M 10.460938 12.703125 C 10.257812 12.75 10.132812 12.871094 10.097656 13.0625 C 10.035156 13.390625 10.292969 13.6875 10.644531 13.6875 C 10.75 13.6875 10.972656 13.773438 11.253906 13.90625 L 11.695312 14.132812 L 12.777344 14.132812 L 13.226562 13.90625 C 13.824219 13.613281 13.976562 13.613281 14.554688 13.898438 C 15.464844 14.351562 16.078125 14.277344 16.078125 13.710938 C 16.078125 13.410156 15.914062 13.246094 15.570312 13.199219 C 15.421875 13.179688 15.160156 13.085938 14.914062 12.960938 C 14.203125 12.59375 13.660156 12.589844 12.941406 12.941406 C 12.375 13.222656 12.132812 13.238281 11.710938 13.015625 C 11.1875 12.746094 10.761719 12.636719 10.460938 12.703125 Z M 10.460938 12.703125 "/>
<path style=" stroke:none;fill-rule:nonzero;fill:rgb(0%,0%,0%);fill-opacity:1;" d="M 4.09375 14.554688 C 3.9375 14.621094 3.796875 14.832031 3.796875 15 C 3.796875 15.277344 4.078125 15.515625 4.398438 15.515625 C 4.472656 15.515625 4.730469 15.613281 4.972656 15.734375 L 5.414062 15.960938 L 6.496094 15.960938 L 6.941406 15.734375 C 7.53125 15.441406 7.683594 15.441406 8.316406 15.734375 C 8.714844 15.921875 8.84375 15.960938 9.125 15.976562 C 9.464844 15.992188 9.46875 15.992188 9.636719 15.824219 C 9.792969 15.671875 9.804688 15.636719 9.78125 15.460938 C 9.746094 15.191406 9.59375 15.054688 9.28125 15.003906 C 9.140625 14.980469 8.84375 14.875 8.625 14.769531 C 7.859375 14.40625 7.34375 14.410156 6.582031 14.792969 C 6.039062 15.066406 5.878906 15.0625 5.292969 14.773438 C 4.941406 14.601562 4.539062 14.480469 4.316406 14.484375 C 4.273438 14.488281 4.175781 14.515625 4.09375 14.554688 Z M 4.09375 14.554688 "/>
<path style=" stroke:none;fill-rule:nonzero;fill:rgb(0%,0%,0%);fill-opacity:1;" d="M 7.585938 17.105469 C 7.402344 17.25 7.335938 17.480469 7.425781 17.6875 C 7.503906 17.878906 7.664062 17.976562 7.972656 18.015625 C 8.089844 18.027344 8.351562 18.132812 8.558594 18.234375 C 9.257812 18.59375 9.816406 18.585938 10.566406 18.210938 C 11.132812 17.929688 11.273438 17.929688 11.835938 18.210938 C 12.53125 18.558594 13.035156 18.585938 13.265625 18.296875 C 13.378906 18.148438 13.386719 17.875 13.285156 17.722656 C 13.195312 17.597656 12.953125 17.484375 12.765625 17.484375 C 12.695312 17.484375 12.429688 17.386719 12.191406 17.265625 L 11.746094 17.039062 L 10.664062 17.039062 L 10.222656 17.257812 C 9.625 17.5625 9.453125 17.5625 8.855469 17.265625 C 8.476562 17.078125 8.363281 17.042969 8.0625 17.023438 C 7.757812 17.007812 7.695312 17.019531 7.585938 17.105469 Z M 7.585938 17.105469 "/>
<path style=" stroke:none;fill-rule:nonzero;fill:rgb(0%,0%,0%);fill-opacity:1;" d="M 0.652344 19.121094 C 0.332031 19.4375 0.578125 19.96875 1.039062 19.96875 C 1.132812 19.96875 1.367188 20.054688 1.621094 20.179688 C 2.390625 20.558594 2.90625 20.5625 3.65625 20.199219 C 4.238281 19.914062 4.386719 19.90625 4.953125 20.171875 C 5.480469 20.414062 5.808594 20.503906 6.046875 20.460938 C 6.289062 20.414062 6.414062 20.320312 6.472656 20.113281 C 6.515625 19.96875 6.515625 19.90625 6.449219 19.777344 C 6.355469 19.574219 6.242188 19.503906 5.960938 19.472656 C 5.839844 19.453125 5.546875 19.34375 5.300781 19.222656 L 4.855469 19.007812 L 3.816406 19.007812 L 3.359375 19.226562 C 2.789062 19.515625 2.546875 19.527344 2.128906 19.308594 C 1.71875 19.085938 1.378906 18.984375 1.070312 18.984375 C 0.824219 18.984375 0.773438 19.003906 0.652344 19.121094 Z M 0.652344 19.121094 "/>
</g>
</svg>
