<?xml version="1.0" encoding="UTF-8"?>
<svg xmlns="http://www.w3.org/2000/svg" xmlns:xlink="http://www.w3.org/1999/xlink" width="24px" height="24px" viewBox="0 0 24 24" version="1.1">
<g id="surface1">
<path style=" stroke:none;fill-rule:nonzero;fill:rgb(0%,0%,0%);fill-opacity:1;" d="M 7.679688 1.007812 C 6.859375 1.140625 5.976562 1.507812 5.277344 2.007812 C 4.578125 2.511719 3.734375 3.507812 3.328125 4.316406 C 3.253906 4.460938 3.070312 4.882812 2.925781 5.253906 C 2.328125 6.769531 1.671875 7.789062 0.601562 8.886719 C -0.015625 9.511719 -0.09375 9.671875 0.0703125 9.917969 C 0.179688 10.085938 0.425781 10.1875 0.585938 10.125 C 0.886719 10.011719 1.621094 9.253906 2.246094 8.421875 L 2.554688 8.011719 L 2.585938 8.1875 C 2.605469 8.289062 2.652344 8.554688 2.695312 8.789062 C 2.914062 10.011719 3.558594 11.277344 4.4375 12.21875 C 4.75 12.546875 5.019531 12.605469 5.25 12.375 C 5.46875 12.15625 5.429688 11.898438 5.113281 11.558594 C 4.542969 10.953125 4.007812 10.039062 3.777344 9.265625 C 3.417969 8.082031 3.425781 6.742188 3.804688 5.601562 C 4.40625 3.804688 5.75 2.464844 7.398438 2.03125 C 8.023438 1.859375 9.050781 1.851562 9.671875 2.007812 C 11.273438 2.410156 12.484375 3.53125 12.84375 4.945312 C 12.984375 5.492188 12.976562 5.527344 12.742188 5.320312 C 11.59375 4.339844 9.6875 4.765625 9.03125 6.144531 C 8.804688 6.625 8.746094 6.953125 8.785156 7.546875 C 8.886719 9.234375 9.710938 10.785156 11.011719 11.742188 C 11.21875 11.898438 11.390625 12.046875 11.390625 12.074219 C 11.390625 12.097656 11.316406 12.308594 11.222656 12.539062 C 10.175781 15.136719 8.039062 17.140625 5.390625 18.019531 C 4.179688 18.417969 3.441406 18.515625 1.609375 18.515625 C 0.628906 18.515625 0.34375 18.53125 0.238281 18.582031 C -0.0703125 18.746094 -0.0703125 19.222656 0.238281 19.386719 C 0.402344 19.46875 2.601562 19.480469 3.402344 19.402344 C 6.253906 19.125 8.984375 17.617188 10.65625 15.390625 C 10.8125 15.179688 10.960938 15.003906 10.984375 15 C 11 15 11.015625 15.054688 11.015625 15.121094 C 11.015625 15.1875 11.058594 15.453125 11.113281 15.71875 C 11.34375 16.855469 11.921875 17.960938 12.710938 18.789062 C 13.03125 19.117188 13.273438 19.164062 13.5 18.9375 C 13.730469 18.707031 13.683594 18.472656 13.328125 18.085938 C 11.835938 16.421875 11.488281 14.023438 12.449219 12.015625 C 12.871094 11.132812 13.617188 10.292969 14.386719 9.84375 C 14.625 9.703125 14.851562 9.546875 14.886719 9.496094 C 15.046875 9.265625 14.878906 8.863281 14.59375 8.789062 C 14.433594 8.75 13.84375 9.039062 13.402344 9.375 C 12.984375 9.6875 12.394531 10.316406 12.09375 10.765625 C 11.957031 10.96875 11.839844 11.140625 11.832031 11.152344 C 11.765625 11.222656 11.109375 10.640625 10.753906 10.195312 C 10.0625 9.34375 9.632812 8.054688 9.71875 7.128906 C 9.765625 6.582031 10.070312 6.132812 10.5625 5.875 C 10.773438 5.761719 10.859375 5.742188 11.203125 5.742188 C 11.667969 5.742188 11.914062 5.835938 12.234375 6.121094 C 12.460938 6.324219 12.703125 6.789062 12.703125 7.007812 C 12.703125 7.546875 13.117188 7.867188 13.460938 7.59375 C 13.707031 7.40625 13.878906 6.679688 13.882812 5.859375 C 13.882812 5.25 13.800781 4.78125 13.589844 4.195312 C 13.050781 2.714844 11.546875 1.472656 9.796875 1.074219 C 9.261719 0.953125 8.222656 0.917969 7.679688 1.007812 Z M 7.679688 1.007812 "/>
<path style=" stroke:none;fill-rule:nonzero;fill:rgb(0%,0%,0%);fill-opacity:1;" d="M 16.378906 8.339844 C 16.117188 8.453125 16 8.816406 16.152344 9.039062 C 16.261719 9.191406 16.480469 9.289062 16.640625 9.257812 C 16.832031 9.214844 17.015625 8.984375 17.015625 8.785156 C 17.015625 8.484375 16.648438 8.226562 16.378906 8.339844 Z M 16.378906 8.339844 "/>
<path style=" stroke:none;fill-rule:nonzero;fill:rgb(0%,0%,0%);fill-opacity:1;" d="M 18.484375 8.796875 C 18.328125 8.828125 18.140625 9.074219 18.140625 9.253906 C 18.140625 9.449219 18.242188 9.589844 18.484375 9.707031 C 19.109375 10.027344 19.773438 10.621094 20.082031 11.152344 C 20.304688 11.535156 20.605469 12.421875 20.511719 12.421875 C 20.503906 12.421875 20.386719 12.351562 20.253906 12.261719 C 18.921875 11.367188 17.128906 12.089844 16.753906 13.667969 C 16.625 14.199219 16.714844 15.097656 16.972656 15.851562 C 17.09375 16.226562 17.386719 16.804688 17.632812 17.175781 C 17.925781 17.605469 18.625 18.277344 19.097656 18.585938 C 19.570312 18.894531 20.335938 19.21875 20.859375 19.339844 C 21.324219 19.445312 23.507812 19.496094 23.722656 19.40625 C 23.875 19.339844 24 19.148438 24 18.984375 C 24 18.824219 23.875 18.628906 23.734375 18.570312 C 23.65625 18.539062 23.113281 18.511719 22.429688 18.5 C 21.40625 18.484375 21.210938 18.46875 20.886719 18.378906 C 19.21875 17.914062 17.992188 16.570312 17.695312 14.875 C 17.550781 14.03125 17.632812 13.632812 18.046875 13.21875 C 18.589844 12.671875 19.320312 12.65625 19.894531 13.175781 C 20.171875 13.429688 20.34375 13.777344 20.34375 14.085938 C 20.34375 14.304688 20.433594 14.480469 20.582031 14.558594 C 20.75 14.644531 20.878906 14.644531 21.046875 14.554688 C 21.429688 14.351562 21.617188 12.867188 21.378906 11.886719 C 21.078125 10.660156 20.273438 9.648438 19.03125 8.945312 C 18.800781 8.8125 18.640625 8.769531 18.484375 8.796875 Z M 18.484375 8.796875 "/>
<path style=" stroke:none;fill-rule:nonzero;fill:rgb(0%,0%,0%);fill-opacity:1;" d="M 4.703125 20.859375 C 4.210938 20.984375 3.886719 21.171875 3.40625 21.601562 C 3.277344 21.710938 3.03125 21.875 2.863281 21.957031 C 2.582031 22.085938 2.511719 22.101562 2.109375 22.101562 C 1.589844 22.097656 1.332031 22.007812 0.898438 21.671875 C 0.566406 21.414062 0.347656 21.394531 0.132812 21.609375 C 0.00390625 21.734375 -0.0078125 21.777344 0.015625 21.953125 C 0.078125 22.460938 1.214844 23.0625 2.109375 23.0625 C 2.78125 23.0625 3.445312 22.796875 4.054688 22.285156 C 4.609375 21.820312 4.832031 21.726562 5.414062 21.730469 C 6 21.730469 6.234375 21.828125 6.773438 22.289062 C 7.738281 23.113281 8.898438 23.28125 9.960938 22.753906 C 10.148438 22.664062 10.429688 22.476562 10.578125 22.339844 C 10.964844 22 11.09375 21.910156 11.429688 21.800781 C 12.089844 21.578125 12.886719 21.777344 13.355469 22.285156 C 13.542969 22.484375 14.039062 22.78125 14.390625 22.902344 C 15.347656 23.234375 16.363281 23.015625 17.226562 22.289062 C 17.769531 21.824219 18.003906 21.730469 18.585938 21.726562 C 19.023438 21.726562 19.078125 21.734375 19.359375 21.875 C 19.527344 21.960938 19.8125 22.15625 19.992188 22.3125 C 20.902344 23.109375 22.085938 23.277344 23.132812 22.761719 C 23.316406 22.671875 23.574219 22.5 23.710938 22.375 C 23.921875 22.1875 23.960938 22.117188 23.984375 21.953125 C 24.007812 21.777344 23.996094 21.734375 23.867188 21.609375 C 23.652344 21.394531 23.433594 21.414062 23.101562 21.671875 C 22.667969 22.007812 22.410156 22.097656 21.890625 22.101562 C 21.488281 22.101562 21.417969 22.085938 21.140625 21.957031 C 20.972656 21.875 20.691406 21.683594 20.507812 21.523438 C 19.894531 20.984375 19.191406 20.734375 18.417969 20.78125 C 17.722656 20.820312 17.199219 21.054688 16.574219 21.601562 C 15.804688 22.273438 14.84375 22.292969 14.085938 21.65625 C 13.257812 20.957031 12.652344 20.726562 11.8125 20.78125 C 11.203125 20.816406 10.585938 21.074219 10.152344 21.46875 C 9.539062 22.027344 8.945312 22.222656 8.304688 22.078125 C 7.976562 22 7.734375 21.863281 7.3125 21.511719 C 7.09375 21.332031 6.78125 21.117188 6.617188 21.042969 C 6.042969 20.765625 5.324219 20.695312 4.703125 20.859375 Z M 4.703125 20.859375 "/>
</g>
</svg>
