<?xml version="1.0" encoding="UTF-8"?>
<svg xmlns="http://www.w3.org/2000/svg" xmlns:xlink="http://www.w3.org/1999/xlink" width="32px" height="32px" viewBox="0 0 32 32" version="1.1">
<g id="surface1">
<path style=" stroke:none;fill-rule:nonzero;fill:rgb(0%,0%,0%);fill-opacity:1;" d="M 24.8125 0.863281 C 24.71875 0.9375 24.664062 1.070312 24.644531 1.261719 L 24.613281 1.550781 L 24.324219 1.582031 C 23.613281 1.664062 23.648438 2.5 24.363281 2.5 L 24.625 2.5 L 24.625 2.742188 C 24.625 3.082031 24.835938 3.332031 25.125 3.332031 C 25.40625 3.332031 25.5625 3.132812 25.5625 2.773438 L 25.5625 2.5 L 25.84375 2.5 C 26.195312 2.5 26.375 2.34375 26.375 2.042969 C 26.375 1.769531 26.207031 1.617188 25.84375 1.582031 L 25.5625 1.542969 L 25.5625 1.273438 C 25.5625 1.0625 25.53125 0.980469 25.398438 0.882812 C 25.195312 0.71875 24.992188 0.710938 24.8125 0.863281 Z M 24.8125 0.863281 "/>
<path style=" stroke:none;fill-rule:nonzero;fill:rgb(0%,0%,0%);fill-opacity:1;" d="M 21.949219 3.375 C 20.761719 4.136719 20.09375 5.273438 20.019531 6.664062 C 19.949219 7.917969 20.332031 8.90625 21.242188 9.8125 C 21.832031 10.398438 22.375 10.710938 23.125 10.914062 C 23.667969 11.0625 24.648438 11.054688 25.1875 10.914062 C 26.023438 10.6875 26.914062 10.101562 27.40625 9.449219 C 27.648438 9.136719 27.6875 8.863281 27.539062 8.570312 C 27.394531 8.300781 27.195312 8.242188 26.542969 8.289062 C 25.882812 8.335938 25.429688 8.261719 24.824219 8 C 24.492188 7.855469 24.382812 7.835938 24.238281 7.886719 C 23.949219 7.988281 23.84375 8.335938 24.023438 8.574219 C 24.238281 8.855469 25.417969 9.242188 26.054688 9.25 L 26.332031 9.25 L 26.085938 9.445312 C 25.742188 9.726562 25.269531 9.929688 24.710938 10.042969 C 23.113281 10.367188 21.460938 9.304688 21.03125 7.679688 C 20.835938 6.960938 20.949219 6.0625 21.3125 5.382812 C 21.492188 5.039062 21.96875 4.4375 22.050781 4.4375 C 22.074219 4.4375 22.082031 4.675781 22.070312 4.96875 C 22.039062 5.863281 22.367188 6.976562 22.71875 7.136719 C 22.929688 7.230469 23.1875 7.144531 23.304688 6.925781 C 23.394531 6.773438 23.386719 6.71875 23.21875 6.242188 C 22.992188 5.585938 22.945312 4.929688 23.085938 4.382812 C 23.261719 3.695312 23.195312 3.382812 22.832031 3.195312 C 22.585938 3.070312 22.34375 3.117188 21.949219 3.375 Z M 21.949219 3.375 "/>
<path style=" stroke:none;fill-rule:nonzero;fill:rgb(0%,0%,0%);fill-opacity:1;" d="M 26.96875 3.78125 C 26.882812 3.863281 26.8125 3.988281 26.8125 4.0625 C 26.8125 4.144531 26.769531 4.1875 26.6875 4.1875 C 26.507812 4.1875 26.25 4.460938 26.25 4.65625 C 26.25 4.851562 26.507812 5.125 26.6875 5.125 C 26.769531 5.125 26.8125 5.167969 26.8125 5.25 C 26.8125 5.429688 27.085938 5.6875 27.28125 5.6875 C 27.476562 5.6875 27.75 5.429688 27.75 5.25 C 27.75 5.167969 27.792969 5.125 27.875 5.125 C 28.054688 5.125 28.3125 4.851562 28.3125 4.65625 C 28.3125 4.460938 28.054688 4.1875 27.875 4.1875 C 27.792969 4.1875 27.75 4.144531 27.75 4.0625 C 27.75 3.882812 27.476562 3.625 27.28125 3.625 C 27.195312 3.625 27.050781 3.695312 26.96875 3.78125 Z M 26.96875 3.78125 "/>
<path style=" stroke:none;fill-rule:nonzero;fill:rgb(0%,0%,0%);fill-opacity:1;" d="M 15.738281 5.820312 C 15.554688 5.917969 15.5 6.300781 15.5 7.382812 L 15.5 8.417969 L 15.269531 8.570312 C 15.136719 8.648438 14.9375 8.855469 14.8125 9.019531 C 13.242188 11.167969 0.699219 27.605469 0.605469 27.644531 C 0.386719 27.726562 0.25 27.882812 0.25 28.054688 C 0.25 28.144531 0.195312 28.300781 0.125 28.40625 C 0.0546875 28.507812 0 28.65625 0 28.738281 C 0 28.9375 0.269531 29.1875 0.480469 29.1875 C 0.644531 29.1875 0.675781 29.230469 0.863281 29.707031 C 0.96875 29.988281 1.0625 30.242188 1.0625 30.269531 C 1.0625 30.292969 1.007812 30.367188 0.9375 30.4375 C 0.75 30.625 0.769531 30.957031 0.976562 31.117188 L 1.144531 31.25 L 30.855469 31.25 L 31.023438 31.117188 C 31.230469 30.957031 31.25 30.625 31.0625 30.4375 C 30.992188 30.367188 30.9375 30.292969 30.9375 30.269531 C 30.9375 30.242188 31.03125 29.988281 31.144531 29.707031 C 31.324219 29.230469 31.355469 29.1875 31.519531 29.1875 C 31.730469 29.1875 32 28.9375 32 28.738281 C 32 28.65625 31.945312 28.507812 31.875 28.40625 C 31.804688 28.300781 31.75 28.144531 31.75 28.054688 C 31.75 27.882812 31.613281 27.726562 31.394531 27.644531 C 31.300781 27.605469 18.757812 11.167969 17.1875 9.019531 C 17.0625 8.855469 16.863281 8.648438 16.730469 8.570312 L 16.5 8.417969 L 16.5 7.382812 C 16.5 6.273438 16.445312 5.914062 16.25 5.8125 C 16.101562 5.730469 15.875 5.738281 15.738281 5.820312 Z M 15.5 14.1875 L 15.5 18.679688 L 13.917969 18.699219 L 12.332031 18.71875 L 12.023438 18.90625 C 11.835938 19.023438 11.648438 19.210938 11.53125 19.398438 L 11.34375 19.707031 L 11.324219 25.011719 L 11.3125 30.3125 L 7 30.3125 C 4.625 30.3125 2.6875 30.292969 2.6875 30.269531 C 2.6875 30.230469 15.457031 9.695312 15.488281 9.6875 C 15.492188 9.6875 15.5 11.710938 15.5 14.1875 Z M 22.90625 19.9375 C 26.398438 25.554688 29.28125 30.1875 29.292969 30.230469 C 29.320312 30.300781 28.480469 30.3125 25.007812 30.3125 L 20.6875 30.3125 L 20.6875 28.289062 C 20.6875 27.175781 20.667969 26.210938 20.648438 26.15625 C 20.625 26.105469 20.523438 26.011719 20.425781 25.960938 C 20.195312 25.84375 19.925781 25.929688 19.820312 26.164062 C 19.773438 26.269531 19.75 26.960938 19.75 28.3125 L 19.75 30.3125 L 16.5 30.3125 L 16.5 19.625 L 19.417969 19.625 L 19.585938 19.789062 L 19.75 19.957031 L 19.75 22.125 C 19.75 24.226562 19.757812 24.300781 19.882812 24.460938 C 20.050781 24.675781 20.375 24.6875 20.5625 24.488281 C 20.679688 24.355469 20.6875 24.28125 20.6875 22.113281 C 20.6875 19.6875 20.679688 19.664062 20.332031 19.199219 C 20.242188 19.082031 20.023438 18.917969 19.851562 18.835938 C 19.542969 18.695312 19.480469 18.6875 18.019531 18.6875 L 16.5 18.6875 L 16.5 14.175781 C 16.5 11.695312 16.511719 9.679688 16.523438 9.695312 C 16.539062 9.707031 19.40625 14.320312 22.90625 19.9375 Z M 8.699219 18.792969 C 4.292969 25.894531 1.90625 29.679688 1.875 29.644531 C 1.84375 29.617188 1.710938 29.320312 1.574219 28.988281 L 1.320312 28.375 L 5.136719 23.34375 C 7.238281 20.574219 8.960938 18.3125 8.976562 18.3125 C 8.992188 18.3125 8.867188 18.53125 8.699219 18.792969 Z M 26.925781 23.425781 L 30.679688 28.375 L 30.425781 28.988281 C 30.289062 29.320312 30.15625 29.617188 30.125 29.644531 C 30.09375 29.679688 23.457031 19.132812 23.039062 18.382812 C 22.988281 18.292969 22.992188 18.292969 23.074219 18.375 C 23.132812 18.425781 24.863281 20.699219 26.925781 23.425781 Z M 15.5 24.96875 L 15.5 30.3125 L 12.25 30.3125 L 12.25 19.957031 L 12.414062 19.789062 L 12.582031 19.625 L 15.5 19.625 Z M 15.5 24.96875 "/>
</g>
</svg>
