<svg width="124" height="24" viewBox="0 0 124 24" fill="none" xmlns="http://www.w3.org/2000/svg">
<path d="M7.16797 11.918H2.82031V9.17578H7.16797C7.83984 9.17578 8.38672 9.06641 8.80859 8.84766C9.23047 8.62109 9.53906 8.30859 9.73438 7.91016C9.92969 7.51172 10.0273 7.0625 10.0273 6.5625C10.0273 6.05469 9.92969 5.58203 9.73438 5.14453C9.53906 4.70703 9.23047 4.35547 8.80859 4.08984C8.38672 3.82422 7.83984 3.69141 7.16797 3.69141H4.03906V18H0.523438V0.9375H7.16797C8.50391 0.9375 9.64844 1.17969 10.6016 1.66406C11.5625 2.14063 12.2969 2.80078 12.8047 3.64453C13.3125 4.48828 13.5664 5.45312 13.5664 6.53906C13.5664 7.64062 13.3125 8.59375 12.8047 9.39844C12.2969 10.2031 11.5625 10.8242 10.6016 11.2617C9.64844 11.6992 8.50391 11.918 7.16797 11.918ZM17.6637 0V18H14.277V0H17.6637ZM25.6166 15.1406V9.49219C25.6166 9.08594 25.5502 8.73828 25.4173 8.44922C25.2845 8.15234 25.0775 7.92188 24.7962 7.75781C24.5228 7.59375 24.1673 7.51172 23.7298 7.51172C23.3548 7.51172 23.0306 7.57812 22.7572 7.71094C22.4837 7.83594 22.2728 8.01953 22.1244 8.26172C21.9759 8.49609 21.9017 8.77344 21.9017 9.09375H18.5267C18.5267 8.55469 18.6517 8.04297 18.9017 7.55859C19.1517 7.07422 19.515 6.64844 19.9916 6.28125C20.4681 5.90625 21.0345 5.61328 21.6908 5.40234C22.3548 5.19141 23.097 5.08594 23.9173 5.08594C24.9017 5.08594 25.7767 5.25 26.5423 5.57812C27.308 5.90625 27.9095 6.39844 28.347 7.05469C28.7923 7.71094 29.015 8.53125 29.015 9.51562V14.9414C29.015 15.6367 29.058 16.207 29.1439 16.6523C29.2298 17.0898 29.3548 17.4727 29.5189 17.8008V18H26.1087C25.9447 17.6562 25.8197 17.2266 25.7337 16.7109C25.6556 16.1875 25.6166 15.6641 25.6166 15.1406ZM26.0619 10.2773L26.0853 12.1875H24.1986C23.7533 12.1875 23.3666 12.2383 23.0384 12.3398C22.7103 12.4414 22.4408 12.5859 22.2298 12.7734C22.0189 12.9531 21.8627 13.1641 21.7611 13.4062C21.6673 13.6484 21.6205 13.9141 21.6205 14.2031C21.6205 14.4922 21.6869 14.7539 21.8197 14.9883C21.9525 15.2148 22.1439 15.3945 22.3939 15.5273C22.6439 15.6523 22.9369 15.7148 23.2728 15.7148C23.7806 15.7148 24.222 15.6133 24.597 15.4102C24.972 15.207 25.2611 14.957 25.4642 14.6602C25.6752 14.3633 25.7845 14.082 25.7923 13.8164L26.683 15.2461C26.558 15.5664 26.3861 15.8984 26.1673 16.2422C25.9564 16.5859 25.6869 16.9102 25.3587 17.2148C25.0306 17.5117 24.6361 17.7578 24.1752 17.9531C23.7142 18.1406 23.1673 18.2344 22.5345 18.2344C21.7298 18.2344 20.9994 18.0742 20.3431 17.7539C19.6947 17.4258 19.1791 16.9766 18.7962 16.4062C18.4212 15.8281 18.2337 15.1719 18.2337 14.4375C18.2337 13.7734 18.3587 13.1836 18.6087 12.668C18.8587 12.1523 19.2259 11.7188 19.7103 11.3672C20.2025 11.0078 20.8158 10.7383 21.5502 10.5586C22.2845 10.3711 23.1361 10.2773 24.1048 10.2773H26.0619ZM33.5108 16.5703L36.8741 5.32031H40.4952L35.3975 19.9102C35.2881 20.2305 35.1397 20.5742 34.9522 20.9414C34.7725 21.3086 34.5264 21.6562 34.2139 21.9844C33.9092 22.3203 33.5225 22.5938 33.0538 22.8047C32.5928 23.0156 32.0264 23.1211 31.3545 23.1211C31.0342 23.1211 30.7725 23.1016 30.5694 23.0625C30.3663 23.0234 30.1241 22.9688 29.8428 22.8984V20.4258C29.9288 20.4258 30.0186 20.4258 30.1123 20.4258C30.2061 20.4336 30.2959 20.4375 30.3819 20.4375C30.8272 20.4375 31.1905 20.3867 31.4717 20.2852C31.753 20.1836 31.9795 20.0273 32.1514 19.8164C32.3233 19.6133 32.46 19.3477 32.5616 19.0195L33.5108 16.5703ZM32.1045 5.32031L34.8584 14.5078L35.3389 18.082L33.042 18.3281L28.4834 5.32031H32.1045ZM50.2644 12.3398H53.7683C53.698 13.4883 53.3816 14.5078 52.8191 15.3984C52.2644 16.2891 51.487 16.9844 50.487 17.4844C49.4948 17.9844 48.2995 18.2344 46.9011 18.2344C45.8073 18.2344 44.8269 18.0469 43.9597 17.6719C43.0925 17.2891 42.3503 16.7422 41.7331 16.0312C41.1237 15.3203 40.6589 14.4609 40.3386 13.4531C40.0183 12.4453 39.8581 11.3164 39.8581 10.0664V8.88281C39.8581 7.63281 40.0222 6.50391 40.3503 5.49609C40.6862 4.48047 41.1628 3.61719 41.78 2.90625C42.405 2.19531 43.1511 1.64844 44.0183 1.26562C44.8855 0.882812 45.8542 0.691406 46.9245 0.691406C48.3464 0.691406 49.5456 0.949219 50.5222 1.46484C51.5066 1.98047 52.2683 2.69141 52.8073 3.59766C53.3542 4.50391 53.6823 5.53516 53.7917 6.69141H50.2761C50.237 6.00391 50.1003 5.42188 49.8659 4.94531C49.6316 4.46094 49.2761 4.09766 48.7995 3.85547C48.3308 3.60547 47.7058 3.48047 46.9245 3.48047C46.3386 3.48047 45.8269 3.58984 45.3894 3.80859C44.9519 4.02734 44.5847 4.35938 44.2878 4.80469C43.9909 5.25 43.7683 5.8125 43.6198 6.49219C43.4792 7.16406 43.4089 7.95312 43.4089 8.85938V10.0664C43.4089 10.9492 43.4753 11.7266 43.6081 12.3984C43.7409 13.0625 43.9441 13.625 44.2175 14.0859C44.4987 14.5391 44.8581 14.8828 45.2956 15.1172C45.7409 15.3438 46.2761 15.457 46.9011 15.457C47.6355 15.457 48.2409 15.3398 48.7175 15.1055C49.1941 14.8711 49.5573 14.5234 49.8073 14.0625C50.0652 13.6016 50.2175 13.0273 50.2644 12.3398ZM61.0297 15.1406V9.49219C61.0297 9.08594 60.9633 8.73828 60.8305 8.44922C60.6977 8.15234 60.4906 7.92188 60.2094 7.75781C59.9359 7.59375 59.5805 7.51172 59.143 7.51172C58.768 7.51172 58.4437 7.57812 58.1703 7.71094C57.8969 7.83594 57.6859 8.01953 57.5375 8.26172C57.3891 8.49609 57.3148 8.77344 57.3148 9.09375H53.9398C53.9398 8.55469 54.0648 8.04297 54.3148 7.55859C54.5648 7.07422 54.9281 6.64844 55.4047 6.28125C55.8812 5.90625 56.4477 5.61328 57.1039 5.40234C57.768 5.19141 58.5102 5.08594 59.3305 5.08594C60.3148 5.08594 61.1898 5.25 61.9555 5.57812C62.7211 5.90625 63.3227 6.39844 63.7602 7.05469C64.2055 7.71094 64.4281 8.53125 64.4281 9.51562V14.9414C64.4281 15.6367 64.4711 16.207 64.557 16.6523C64.643 17.0898 64.768 17.4727 64.932 17.8008V18H61.5219C61.3578 17.6562 61.2328 17.2266 61.1469 16.7109C61.0687 16.1875 61.0297 15.6641 61.0297 15.1406ZM61.475 10.2773L61.4984 12.1875H59.6117C59.1664 12.1875 58.7797 12.2383 58.4516 12.3398C58.1234 12.4414 57.8539 12.5859 57.643 12.7734C57.432 12.9531 57.2758 13.1641 57.1742 13.4062C57.0805 13.6484 57.0336 13.9141 57.0336 14.2031C57.0336 14.4922 57.1 14.7539 57.2328 14.9883C57.3656 15.2148 57.557 15.3945 57.807 15.5273C58.057 15.6523 58.35 15.7148 58.6859 15.7148C59.1937 15.7148 59.6352 15.6133 60.0102 15.4102C60.3852 15.207 60.6742 14.957 60.8773 14.6602C61.0883 14.3633 61.1977 14.082 61.2055 13.8164L62.0961 15.2461C61.9711 15.5664 61.7992 15.8984 61.5805 16.2422C61.3695 16.5859 61.1 16.9102 60.7719 17.2148C60.4437 17.5117 60.0492 17.7578 59.5883 17.9531C59.1273 18.1406 58.5805 18.2344 57.9477 18.2344C57.143 18.2344 56.4125 18.0742 55.7562 17.7539C55.1078 17.4258 54.5922 16.9766 54.2094 16.4062C53.8344 15.8281 53.6469 15.1719 53.6469 14.4375C53.6469 13.7734 53.7719 13.1836 54.0219 12.668C54.2719 12.1523 54.6391 11.7188 55.1234 11.3672C55.6156 11.0078 56.2289 10.7383 56.9633 10.5586C57.6977 10.3711 58.5492 10.2773 59.518 10.2773H61.475ZM68.7247 7.94531V18H65.338V5.32031H68.5137L68.7247 7.94531ZM68.2559 11.2148H67.3184C67.3184 10.332 67.4239 9.51953 67.6348 8.77734C67.8536 8.02734 68.17 7.37891 68.5841 6.83203C69.0059 6.27734 69.5255 5.84766 70.1427 5.54297C70.7598 5.23828 71.4747 5.08594 72.2872 5.08594C72.8497 5.08594 73.3653 5.17188 73.8341 5.34375C74.3028 5.50781 74.7052 5.76953 75.0411 6.12891C75.3848 6.48047 75.6505 6.94141 75.838 7.51172C76.0255 8.07422 76.1192 8.75 76.1192 9.53906V18H72.7442V9.91406C72.7442 9.33594 72.6661 8.89062 72.5098 8.57812C72.3536 8.26562 72.1309 8.04688 71.8419 7.92188C71.5606 7.79688 71.2208 7.73438 70.8223 7.73438C70.3848 7.73438 70.002 7.82422 69.6739 8.00391C69.3536 8.18359 69.088 8.43359 68.877 8.75391C68.6661 9.06641 68.5098 9.43359 68.4083 9.85547C68.3067 10.2773 68.2559 10.7305 68.2559 11.2148ZM75.8028 10.8281L74.5958 10.9805C74.5958 10.1523 74.6973 9.38281 74.9005 8.67188C75.1114 7.96094 75.42 7.33594 75.8262 6.79688C76.2403 6.25781 76.752 5.83984 77.3614 5.54297C77.9708 5.23828 78.6739 5.08594 79.4708 5.08594C80.0802 5.08594 80.6348 5.17578 81.1348 5.35547C81.6348 5.52734 82.0606 5.80469 82.4122 6.1875C82.7716 6.5625 83.045 7.05469 83.2325 7.66406C83.4278 8.27344 83.5255 9.01953 83.5255 9.90234V18H80.1387V9.90234C80.1387 9.31641 80.0606 8.87109 79.9044 8.56641C79.7559 8.25391 79.5372 8.03906 79.2481 7.92188C78.9669 7.79688 78.6309 7.73438 78.2403 7.73438C77.8341 7.73438 77.4786 7.81641 77.1739 7.98047C76.8692 8.13672 76.6153 8.35547 76.4122 8.63672C76.2091 8.91797 76.0567 9.24609 75.9552 9.62109C75.8536 9.98828 75.8028 10.3906 75.8028 10.8281ZM87.8337 7.75781V22.875H84.4587V5.32031H87.5877L87.8337 7.75781ZM95.8611 11.5195V11.7656C95.8611 12.6875 95.7517 13.543 95.533 14.332C95.322 15.1211 95.0095 15.8086 94.5955 16.3945C94.1814 16.9727 93.6658 17.4258 93.0486 17.7539C92.4392 18.0742 91.7361 18.2344 90.9392 18.2344C90.1658 18.2344 89.4939 18.0781 88.9236 17.7656C88.3533 17.4531 87.8728 17.0156 87.4822 16.4531C87.0994 15.8828 86.7908 15.2227 86.5564 14.4727C86.322 13.7227 86.1423 12.918 86.0173 12.0586V11.4141C86.1423 10.4922 86.322 9.64844 86.5564 8.88281C86.7908 8.10938 87.0994 7.44141 87.4822 6.87891C87.8728 6.30859 88.3494 5.86719 88.9119 5.55469C89.4822 5.24219 90.1502 5.08594 90.9158 5.08594C91.7205 5.08594 92.4275 5.23828 93.0369 5.54297C93.6541 5.84766 94.1697 6.28516 94.5837 6.85547C95.0056 7.42578 95.322 8.10547 95.533 8.89453C95.7517 9.68359 95.8611 10.5586 95.8611 11.5195ZM92.4744 11.7656V11.5195C92.4744 10.9805 92.4275 10.4844 92.3337 10.0312C92.2478 9.57031 92.1072 9.16797 91.9119 8.82422C91.7244 8.48047 91.4744 8.21484 91.1619 8.02734C90.8572 7.83203 90.4861 7.73438 90.0486 7.73438C89.5877 7.73438 89.1931 7.80859 88.865 7.95703C88.5447 8.10547 88.283 8.32031 88.0798 8.60156C87.8767 8.88281 87.7244 9.21875 87.6228 9.60938C87.5212 10 87.4587 10.4414 87.4353 10.9336V12.5625C87.4744 13.1406 87.5837 13.6602 87.7634 14.1211C87.9431 14.5742 88.2205 14.9336 88.5955 15.1992C88.9705 15.4648 89.4627 15.5977 90.072 15.5977C90.5173 15.5977 90.8923 15.5 91.197 15.3047C91.5017 15.1016 91.7478 14.8242 91.9353 14.4727C92.1306 14.1211 92.2673 13.7148 92.3455 13.2539C92.4314 12.793 92.4744 12.2969 92.4744 11.7656ZM99.8412 5.32031V18H96.4545V5.32031H99.8412ZM96.2436 2.01562C96.2436 1.52344 96.4155 1.11719 96.7592 0.796875C97.103 0.476563 97.5639 0.316406 98.142 0.316406C98.7123 0.316406 99.1694 0.476563 99.5131 0.796875C99.8647 1.11719 100.04 1.52344 100.04 2.01562C100.04 2.50781 99.8647 2.91406 99.5131 3.23438C99.1694 3.55469 98.7123 3.71484 98.142 3.71484C97.5639 3.71484 97.103 3.55469 96.7592 3.23438C96.4155 2.91406 96.2436 2.50781 96.2436 2.01562ZM104.255 8.02734V18H100.88V5.32031H104.044L104.255 8.02734ZM103.763 11.2148H102.849C102.849 10.2773 102.97 9.43359 103.212 8.68359C103.454 7.92578 103.794 7.28125 104.232 6.75C104.669 6.21094 105.189 5.80078 105.79 5.51953C106.4 5.23047 107.079 5.08594 107.829 5.08594C108.423 5.08594 108.966 5.17188 109.458 5.34375C109.95 5.51562 110.372 5.78906 110.724 6.16406C111.083 6.53906 111.357 7.03516 111.544 7.65234C111.739 8.26953 111.837 9.02344 111.837 9.91406V18H108.439V9.90234C108.439 9.33984 108.36 8.90234 108.204 8.58984C108.048 8.27734 107.817 8.05859 107.513 7.93359C107.216 7.80078 106.849 7.73438 106.411 7.73438C105.958 7.73438 105.564 7.82422 105.228 8.00391C104.9 8.18359 104.626 8.43359 104.407 8.75391C104.196 9.06641 104.036 9.43359 103.927 9.85547C103.817 10.2773 103.763 10.7305 103.763 11.2148ZM120.751 5.32031H123.809V17.5781C123.809 18.7344 123.552 19.7148 123.036 20.5195C122.528 21.332 121.817 21.9453 120.903 22.3594C119.989 22.7812 118.927 22.9922 117.716 22.9922C117.184 22.9922 116.622 22.9219 116.028 22.7812C115.442 22.6406 114.88 22.4219 114.341 22.125C113.809 21.8281 113.364 21.4531 113.005 21L114.493 19.0078C114.884 19.4609 115.337 19.8125 115.852 20.0625C116.368 20.3203 116.938 20.4492 117.563 20.4492C118.173 20.4492 118.688 20.3359 119.11 20.1094C119.532 19.8906 119.856 19.5664 120.083 19.1367C120.309 18.7148 120.423 18.2031 120.423 17.6016V8.25L120.751 5.32031ZM112.22 11.8125V11.5664C112.22 10.5977 112.337 9.71875 112.571 8.92969C112.813 8.13281 113.153 7.44922 113.591 6.87891C114.036 6.30859 114.575 5.86719 115.208 5.55469C115.841 5.24219 116.555 5.08594 117.352 5.08594C118.196 5.08594 118.903 5.24219 119.473 5.55469C120.044 5.86719 120.512 6.3125 120.88 6.89062C121.247 7.46094 121.532 8.13672 121.735 8.91797C121.946 9.69141 122.11 10.5391 122.227 11.4609V12C122.11 12.8828 121.934 13.7031 121.7 14.4609C121.466 15.2188 121.157 15.8828 120.774 16.4531C120.391 17.0156 119.915 17.4531 119.345 17.7656C118.782 18.0781 118.11 18.2344 117.329 18.2344C116.548 18.2344 115.841 18.0742 115.208 17.7539C114.583 17.4336 114.048 16.9844 113.602 16.4062C113.157 15.8281 112.813 15.1484 112.571 14.3672C112.337 13.5859 112.22 12.7344 112.22 11.8125ZM115.595 11.5664V11.8125C115.595 12.3359 115.645 12.8242 115.747 13.2773C115.848 13.7305 116.005 14.1328 116.216 14.4844C116.434 14.8281 116.704 15.0977 117.024 15.293C117.352 15.4805 117.739 15.5742 118.184 15.5742C118.802 15.5742 119.305 15.4453 119.696 15.1875C120.087 14.9219 120.38 14.5586 120.575 14.0977C120.77 13.6367 120.884 13.1055 120.915 12.5039V10.9688C120.899 10.4766 120.833 10.0352 120.716 9.64453C120.598 9.24609 120.434 8.90625 120.223 8.625C120.012 8.34375 119.739 8.125 119.403 7.96875C119.067 7.8125 118.669 7.73438 118.208 7.73438C117.762 7.73438 117.376 7.83594 117.048 8.03906C116.727 8.23438 116.458 8.50391 116.239 8.84766C116.028 9.19141 115.868 9.59766 115.759 10.0664C115.649 10.5273 115.595 11.0273 115.595 11.5664Z" fill="black"/>
</svg>
